<svg width="152" height="40" viewBox="0 0 152 40" fill="none" xmlns="http://www.w3.org/2000/svg">
<path fill-rule="evenodd" clip-rule="evenodd" d="M16.7033 3.33333C25.9283 3.33333 33.4066 10.7952 33.4066 20C33.4066 29.2047 25.9283 36.6667 16.7033 36.6667C7.47832 36.6667 0 29.2047 0 20C0 10.7952 7.47832 3.33333 16.7033 3.33333ZM29.2308 20C29.2308 26.9036 23.6221 32.5 16.7033 32.5V7.49999C23.6221 7.49999 29.2308 13.0964 29.2308 20Z" fill="#272727"/>
<path d="M49.628 10.76C54.2281 10.76 56.4154 13.055 56.8438 16.385H53.5291C53.1457 14.6975 51.8153 13.685 49.6505 13.685C46.8319 13.685 45.1632 15.485 45.1632 19.1975C45.1632 23.4725 47.1476 24.89 49.7182 24.89C51.8604 24.89 53.1457 23.9 53.5516 22.19H56.8438C56.3703 25.8575 53.8222 27.815 49.628 27.815C44.5995 27.815 41.7582 24.98 41.7582 19.355C41.7582 14.3825 44.2161 10.76 49.628 10.76Z" fill="#272727"/>
<path d="M61.1529 21.5375C61.1529 24.26 62.1901 25.205 63.949 25.205C65.6853 25.205 66.7 24.26 66.7 21.5375C66.7 18.86 65.6853 17.8925 63.949 17.8925C62.1901 17.8925 61.1529 18.86 61.1529 21.5375ZM57.793 21.5375C57.793 17.4875 59.9352 15.305 63.949 15.305C67.9628 15.305 70.0824 17.4875 70.0824 21.5375C70.0824 25.61 67.9402 27.815 63.949 27.815C59.9352 27.815 57.793 25.61 57.793 21.5375Z" fill="#272727"/>
<path d="M78.408 15.305C80.9109 15.305 82.3541 16.295 82.6472 18.4775C82.7149 19.085 82.7374 19.6475 82.7374 20.615V27.5H79.5129V20.57C79.5129 18.995 79.0844 17.9825 77.303 17.9825C75.8373 17.9375 74.8 18.95 74.8 21.2V27.5H71.5755V15.62H74.5294L74.6647 17.555C75.0481 15.8 76.4462 15.305 78.408 15.305Z" fill="#272727"/>
<path d="M88.8123 23.3825C88.8123 25.1375 89.1956 25.295 91.3378 25.1825V27.6125C90.5937 27.7025 89.9623 27.77 88.9025 27.77C86.5122 27.77 85.7455 26.8025 85.6102 25.2725C85.5651 24.62 85.5651 24.1475 85.5651 23.4725V18.185H83.8514V15.6425H85.5651V12.1775H88.8123V15.6425H91.4731V18.185H88.8123V23.3825Z" fill="#272727"/>
<path d="M99.1107 15.305C99.5391 15.305 99.8097 15.305 100.08 15.3725V17.9825C97.2165 17.69 95.9087 18.995 95.9087 22.3475V27.5H92.6841V15.62H95.6381L95.7734 17.8925C95.9989 16.0475 97.3067 15.305 99.1107 15.305Z" fill="#272727"/>
<path d="M105.779 15.305C109.296 15.305 110.604 16.8125 110.762 18.905C110.807 19.5125 110.83 20.075 110.83 20.75V27.5H107.921L107.74 25.925C107.199 27.5225 105.779 27.815 104.02 27.815C101.832 27.815 100.119 26.5775 100.119 24.26C100.119 21.29 102.396 20.21 106.996 20.21H107.65V19.7825C107.65 18.6125 107.267 17.87 105.643 17.87C104.223 17.87 103.591 18.365 103.456 19.4675H100.502C100.592 16.9025 102.171 15.305 105.779 15.305ZM103.253 23.8775C103.253 24.755 103.952 25.25 105.057 25.25C106.32 25.25 107.65 24.53 107.65 23.36V22.415C104.809 22.28 103.253 22.5725 103.253 23.8775Z" fill="#272727"/>
<path d="M117.267 15.305C120.65 15.305 122.093 16.61 122.251 19.1075H119.139C118.981 18.005 118.237 17.735 117.2 17.735C116.252 17.735 115.531 18.095 115.531 18.77C115.531 19.49 116.117 19.895 117.966 20.1875C121.101 20.66 122.611 21.74 122.611 24.08C122.611 26.6 120.311 27.815 117.448 27.815C114.065 27.815 112.329 26.6225 112.013 23.9225H115.17C115.373 25.0025 116.049 25.3625 117.538 25.3625C118.71 25.3625 119.409 24.98 119.409 24.35C119.409 23.5625 118.598 23.1125 116.839 22.8425C113.682 22.325 112.329 21.38 112.329 18.9725C112.329 16.79 114.268 15.305 117.267 15.305Z" fill="#272727"/>
<path d="M128.056 23.3825C128.056 25.1375 128.439 25.295 130.581 25.1825V27.6125C129.837 27.7025 129.206 27.77 128.146 27.77C125.756 27.77 124.989 26.8025 124.854 25.2725C124.809 24.62 124.809 24.1475 124.809 23.4725V18.185H123.095V15.6425H124.809V12.1775H128.056V15.6425H130.717V18.185H128.056V23.3825Z" fill="#272727"/>
<path d="M141.034 11.075L146.852 27.5H143.357L141.981 23.54H135.916L134.517 27.5H131.067L136.998 11.075H141.034ZM136.705 20.75H141.237L139.005 14.1575L136.705 20.75Z" fill="#272727"/>
<path d="M151.461 11.075V27.5H148.169V11.075H151.461Z" fill="#272727"/>
</svg>
