<svg width="159" height="171" viewBox="0 0 159 171" fill="none" xmlns="http://www.w3.org/2000/svg">
<rect width="159" height="171" fill="#f5f6f8"/>
<rect x="15" y="15" width="37" height="37" rx="18.5" fill="#2e2e38"/>
<g clip-path="url(#clip0_7016_259)">
<path d="M33.5 45C39.8513 45 45 39.8512 45 33.5C45 27.1488 39.8513 22 33.5 22C27.1487 22 22 27.1487 22 33.5C22 39.8513 27.1487 45 33.5 45ZM33.5 28.2352C36.4077 28.2352 38.7648 30.5923 38.7648 33.5C38.7648 36.4077 36.4077 38.7648 33.5 38.7648C30.5923 38.7648 28.2352 36.4077 28.2352 33.5C28.2352 30.5923 30.5923 28.2352 33.5 28.2352Z" fill="#04af4c"/>
</g>
<path d="M20.712 83.8V79.048H15.96V76.552H20.712V71.8H23.208V76.552H27.96V79.048H23.208V83.8H20.712ZM30.3739 85L38.6179 70.696H29.4019V68.2H41.5099V70.696L33.2419 85H30.3739ZM49.236 85.312C48.244 85.312 47.348 85.088 46.548 84.64C45.756 84.184 45.072 83.556 44.496 82.756C43.92 81.956 43.48 81.032 43.176 79.984C42.872 78.928 42.72 77.8 42.72 76.6C42.72 75.4 42.872 74.272 43.176 73.216C43.48 72.16 43.92 71.236 44.496 70.444C45.072 69.644 45.756 69.02 46.548 68.572C47.348 68.116 48.244 67.888 49.236 67.888C50.212 67.888 51.1 68.116 51.9 68.572C52.7 69.02 53.38 69.644 53.94 70.444C54.508 71.236 54.944 72.16 55.248 73.216C55.552 74.272 55.704 75.4 55.704 76.6C55.704 77.8 55.552 78.928 55.248 79.984C54.944 81.032 54.508 81.956 53.94 82.756C53.38 83.556 52.7 84.184 51.9 84.64C51.1 85.088 50.212 85.312 49.236 85.312ZM49.236 82.816C50.156 82.816 50.92 82.528 51.528 81.952C52.144 81.368 52.604 80.604 52.908 79.66C53.212 78.716 53.364 77.696 53.364 76.6C53.364 75.448 53.204 74.404 52.884 73.468C52.572 72.524 52.108 71.776 51.492 71.224C50.884 70.664 50.132 70.384 49.236 70.384C48.524 70.384 47.904 70.552 47.376 70.888C46.856 71.224 46.424 71.684 46.08 72.268C45.744 72.852 45.488 73.516 45.312 74.26C45.144 75.004 45.06 75.784 45.06 76.6C45.06 77.696 45.216 78.716 45.528 79.66C45.84 80.604 46.304 81.368 46.92 81.952C47.544 82.528 48.316 82.816 49.236 82.816ZM58.6941 85L68.3901 68.2H71.2701L61.5741 85H58.6941ZM60.7221 75.244C60.1141 75.244 59.5541 75.096 59.0421 74.8C58.5381 74.496 58.1341 74.092 57.8301 73.588C57.5261 73.076 57.3741 72.512 57.3741 71.896C57.3741 71.256 57.5261 70.684 57.8301 70.18C58.1421 69.676 58.5501 69.28 59.0541 68.992C59.5661 68.696 60.1221 68.548 60.7221 68.548C61.3381 68.548 61.8981 68.7 62.4021 69.004C62.9061 69.3 63.3101 69.7 63.6141 70.204C63.9181 70.708 64.0701 71.272 64.0701 71.896C64.0701 72.528 63.9141 73.096 63.6021 73.6C63.2981 74.104 62.8901 74.504 62.3781 74.8C61.8741 75.096 61.3221 75.244 60.7221 75.244ZM60.7221 73.48C61.1701 73.48 61.5461 73.328 61.8501 73.024C62.1541 72.712 62.3061 72.336 62.3061 71.896C62.3061 71.448 62.1541 71.072 61.8501 70.768C61.5461 70.456 61.1701 70.3 60.7221 70.3C60.2821 70.3 59.9061 70.456 59.5941 70.768C59.2901 71.072 59.1381 71.448 59.1381 71.896C59.1381 72.336 59.2901 72.712 59.5941 73.024C59.9061 73.328 60.2821 73.48 60.7221 73.48ZM69.2661 84.676C68.6421 84.676 68.0741 84.52 67.5621 84.208C67.0581 83.888 66.6541 83.476 66.3501 82.972C66.0541 82.46 65.9061 81.908 65.9061 81.316C65.9061 80.692 66.0621 80.128 66.3741 79.624C66.6861 79.112 67.0941 78.708 67.5981 78.412C68.1101 78.108 68.6661 77.956 69.2661 77.956C69.8981 77.956 70.4661 78.112 70.9701 78.424C71.4741 78.736 71.8741 79.148 72.1701 79.66C72.4661 80.172 72.6141 80.724 72.6141 81.316C72.6141 81.932 72.4621 82.496 72.1581 83.008C71.8621 83.512 71.4581 83.916 70.9461 84.22C70.4421 84.524 69.8821 84.676 69.2661 84.676ZM69.2661 82.912C69.6981 82.912 70.0701 82.756 70.3821 82.444C70.6941 82.132 70.8501 81.756 70.8501 81.316C70.8501 80.876 70.6941 80.5 70.3821 80.188C70.0701 79.876 69.6981 79.72 69.2661 79.72C68.8261 79.72 68.4461 79.876 68.1261 80.188C67.8141 80.5 67.6581 80.876 67.6581 81.316C67.6581 81.756 67.8141 82.132 68.1261 82.444C68.4461 82.756 68.8261 82.912 69.2661 82.912Z" fill="#2E2E38"/>
<path d="M81.856 82.4V80.024H79.48V78.776H81.856V76.4H83.104V78.776H85.48V80.024H83.104V82.4H81.856ZM86.6869 83L90.8089 75.848H86.2009V74.6H92.2549V75.848L88.1209 83H86.6869ZM93.982 83V75.848H92.98L93.322 74.6H95.23V83H93.982ZM96.6714 83V81.89C96.9554 81.654 97.2814 81.38 97.6494 81.068C98.0174 80.752 98.3914 80.418 98.7714 80.066C99.1514 79.71 99.5014 79.356 99.8214 79.004C100.141 78.648 100.399 78.312 100.595 77.996C100.795 77.676 100.895 77.398 100.895 77.162C100.895 76.894 100.829 76.65 100.697 76.43C100.569 76.206 100.395 76.028 100.175 75.896C99.9554 75.76 99.7114 75.692 99.4434 75.692C99.1754 75.692 98.9294 75.76 98.7054 75.896C98.4854 76.028 98.3074 76.206 98.1714 76.43C98.0394 76.65 97.9734 76.894 97.9734 77.162H96.7254C96.7254 76.654 96.8494 76.196 97.0974 75.788C97.3494 75.376 97.6794 75.05 98.0874 74.81C98.4994 74.566 98.9514 74.444 99.4434 74.444C99.9394 74.444 100.391 74.566 100.799 74.81C101.207 75.054 101.533 75.382 101.777 75.794C102.021 76.202 102.143 76.658 102.143 77.162C102.143 77.442 102.085 77.73 101.969 78.026C101.853 78.322 101.691 78.624 101.483 78.932C101.279 79.24 101.041 79.552 100.769 79.868C100.497 80.184 100.205 80.5 99.8934 80.816C99.5814 81.132 99.2634 81.444 98.9394 81.752H102.215V83H96.6714ZM104.064 83.156C103.88 83.156 103.724 83.092 103.596 82.964C103.472 82.836 103.41 82.68 103.41 82.496C103.41 82.316 103.472 82.162 103.596 82.034C103.724 81.906 103.88 81.842 104.064 81.842C104.248 81.842 104.404 81.906 104.532 82.034C104.66 82.162 104.724 82.316 104.724 82.496C104.724 82.68 104.66 82.836 104.532 82.964C104.404 83.092 104.248 83.156 104.064 83.156ZM107.315 83L109.013 80.06C108.609 80.136 108.215 80.12 107.831 80.012C107.451 79.9 107.109 79.718 106.805 79.466C106.501 79.21 106.259 78.9 106.079 78.536C105.899 78.172 105.809 77.772 105.809 77.336C105.809 76.94 105.883 76.568 106.031 76.22C106.183 75.868 106.391 75.56 106.655 75.296C106.919 75.028 107.225 74.82 107.573 74.672C107.925 74.52 108.301 74.444 108.701 74.444C109.225 74.444 109.705 74.574 110.141 74.834C110.577 75.094 110.925 75.444 111.185 75.884C111.445 76.32 111.575 76.804 111.575 77.336C111.575 77.612 111.541 77.864 111.473 78.092C111.409 78.32 111.307 78.56 111.167 78.812L108.761 83H107.315ZM108.689 78.974C109.009 78.974 109.293 78.898 109.541 78.746C109.789 78.59 109.983 78.388 110.123 78.14C110.267 77.888 110.339 77.618 110.339 77.33C110.339 77.018 110.263 76.738 110.111 76.49C109.959 76.242 109.757 76.046 109.505 75.902C109.257 75.758 108.989 75.686 108.701 75.686C108.381 75.686 108.097 75.764 107.849 75.92C107.601 76.076 107.405 76.28 107.261 76.532C107.117 76.78 107.045 77.046 107.045 77.33C107.045 77.63 107.117 77.906 107.261 78.158C107.409 78.406 107.607 78.604 107.855 78.752C108.103 78.9 108.381 78.974 108.689 78.974ZM113.796 83L115.494 80.06C115.09 80.136 114.696 80.12 114.312 80.012C113.932 79.9 113.59 79.718 113.286 79.466C112.982 79.21 112.74 78.9 112.56 78.536C112.38 78.172 112.29 77.772 112.29 77.336C112.29 76.94 112.364 76.568 112.512 76.22C112.664 75.868 112.872 75.56 113.136 75.296C113.4 75.028 113.706 74.82 114.054 74.672C114.406 74.52 114.782 74.444 115.182 74.444C115.706 74.444 116.186 74.574 116.622 74.834C117.058 75.094 117.406 75.444 117.666 75.884C117.926 76.32 118.056 76.804 118.056 77.336C118.056 77.612 118.022 77.864 117.954 78.092C117.89 78.32 117.788 78.56 117.648 78.812L115.242 83H113.796ZM115.17 78.974C115.49 78.974 115.774 78.898 116.022 78.746C116.27 78.59 116.464 78.388 116.604 78.14C116.748 77.888 116.82 77.618 116.82 77.33C116.82 77.018 116.744 76.738 116.592 76.49C116.44 76.242 116.238 76.046 115.986 75.902C115.738 75.758 115.47 75.686 115.182 75.686C114.862 75.686 114.578 75.764 114.33 75.92C114.082 76.076 113.886 76.28 113.742 76.532C113.598 76.78 113.526 77.046 113.526 77.33C113.526 77.63 113.598 77.906 113.742 78.158C113.89 78.406 114.088 78.604 114.336 78.752C114.584 78.9 114.862 78.974 115.17 78.974ZM124.761 83L121.713 74.6H123.033L125.541 81.518L128.061 74.6H129.381L126.333 83H124.761Z" fill="#04AF4C"/>
<path d="M20.376 114.182C19.7133 114.182 19.0903 114.051 18.507 113.79C17.9237 113.524 17.4103 113.16 16.967 112.698C16.5283 112.231 16.183 111.69 15.931 111.074C15.6837 110.458 15.56 109.8 15.56 109.1C15.56 108.4 15.6837 107.742 15.931 107.126C16.183 106.51 16.5283 105.971 16.967 105.509C17.4103 105.042 17.9237 104.678 18.507 104.417C19.0903 104.151 19.7133 104.018 20.376 104.018C21.1693 104.018 21.8997 104.202 22.567 104.571C23.2343 104.94 23.7873 105.43 24.226 106.041L22.931 106.734C22.6277 106.351 22.252 106.046 21.804 105.817C21.356 105.588 20.88 105.474 20.376 105.474C19.9093 105.474 19.473 105.57 19.067 105.761C18.661 105.952 18.304 106.214 17.996 106.545C17.688 106.876 17.4477 107.261 17.275 107.7C17.1023 108.139 17.016 108.605 17.016 109.1C17.016 109.599 17.1023 110.068 17.275 110.507C17.4477 110.941 17.688 111.326 17.996 111.662C18.3087 111.993 18.668 112.255 19.074 112.446C19.48 112.633 19.914 112.726 20.376 112.726C20.8893 112.726 21.3677 112.612 21.811 112.383C22.259 112.15 22.6323 111.842 22.931 111.459L24.226 112.166C23.7873 112.777 23.2343 113.267 22.567 113.636C21.8997 114 21.1693 114.182 20.376 114.182ZM31.888 109.611V114H30.432V109.968C30.432 109.655 30.355 109.371 30.201 109.114C30.0517 108.857 29.8487 108.654 29.592 108.505C29.34 108.351 29.0554 108.274 28.738 108.274C28.43 108.274 28.1477 108.351 27.891 108.505C27.6344 108.654 27.429 108.857 27.275 109.114C27.121 109.371 27.044 109.655 27.044 109.968V114H25.588V103.5H27.044V107.742C27.2867 107.453 27.5854 107.224 27.94 107.056C28.2947 106.888 28.6774 106.804 29.088 106.804C29.606 106.804 30.0774 106.93 30.502 107.182C30.9267 107.434 31.2627 107.772 31.51 108.197C31.762 108.622 31.888 109.093 31.888 109.611ZM36.2286 114.182C35.5846 114.182 34.9966 114.016 34.4646 113.685C33.9373 113.354 33.5149 112.91 33.1976 112.355C32.8849 111.795 32.7286 111.177 32.7286 110.5C32.7286 109.987 32.8196 109.508 33.0016 109.065C33.1836 108.617 33.4333 108.225 33.7506 107.889C34.0726 107.548 34.4459 107.282 34.8706 107.091C35.2953 106.9 35.7479 106.804 36.2286 106.804C36.7653 106.804 37.2576 106.916 37.7056 107.14C38.1536 107.359 38.5363 107.665 38.8536 108.057C39.1709 108.444 39.4043 108.892 39.5536 109.401C39.7029 109.905 39.7473 110.442 39.6866 111.011H34.2896C34.3503 111.333 34.4669 111.625 34.6396 111.886C34.8169 112.143 35.0409 112.346 35.3116 112.495C35.5869 112.644 35.8926 112.721 36.2286 112.726C36.5833 112.726 36.9053 112.637 37.1946 112.46C37.4886 112.283 37.7289 112.038 37.9156 111.725L39.3926 112.068C39.1126 112.689 38.6903 113.197 38.1256 113.594C37.5609 113.986 36.9286 114.182 36.2286 114.182ZM34.2406 109.898H38.2166C38.1699 109.562 38.0509 109.259 37.8596 108.988C37.6729 108.713 37.4373 108.496 37.1526 108.337C36.8726 108.174 36.5646 108.092 36.2286 108.092C35.8973 108.092 35.5893 108.171 35.3046 108.33C35.0246 108.489 34.7913 108.706 34.6046 108.981C34.4226 109.252 34.3013 109.557 34.2406 109.898ZM46.2782 107H47.7342V114H46.2712L46.2152 112.985C46.0099 113.344 45.7322 113.634 45.3822 113.853C45.0322 114.072 44.6192 114.182 44.1432 114.182C43.6299 114.182 43.1469 114.086 42.6942 113.895C42.2415 113.699 41.8425 113.428 41.4972 113.083C41.1565 112.738 40.8905 112.341 40.6992 111.893C40.5079 111.44 40.4122 110.955 40.4122 110.437C40.4122 109.938 40.5055 109.469 40.6922 109.03C40.8789 108.587 41.1379 108.199 41.4692 107.868C41.8005 107.537 42.1832 107.278 42.6172 107.091C43.0559 106.9 43.5249 106.804 44.0242 106.804C44.5329 106.804 44.9809 106.921 45.3682 107.154C45.7602 107.383 46.0845 107.677 46.3412 108.036L46.2782 107ZM44.1082 112.775C44.5189 112.775 44.8782 112.675 45.1862 112.474C45.4942 112.269 45.7322 111.993 45.9002 111.648C46.0729 111.303 46.1592 110.92 46.1592 110.5C46.1592 110.075 46.0729 109.69 45.9002 109.345C45.7275 109 45.4872 108.727 45.1792 108.526C44.8759 108.321 44.5189 108.218 44.1082 108.218C43.7022 108.218 43.3312 108.321 42.9952 108.526C42.6592 108.731 42.3932 109.007 42.1972 109.352C42.0012 109.697 41.9032 110.08 41.9032 110.5C41.9032 110.925 42.0035 111.31 42.2042 111.655C42.4095 111.996 42.6779 112.269 43.0092 112.474C43.3452 112.675 43.7115 112.775 44.1082 112.775ZM50.587 117.5H49.131V107H50.587V108.029C50.8203 107.67 51.119 107.378 51.483 107.154C51.847 106.93 52.2763 106.818 52.771 106.818C53.2797 106.818 53.7557 106.914 54.199 107.105C54.647 107.296 55.039 107.562 55.375 107.903C55.711 108.239 55.9747 108.629 56.166 109.072C56.3573 109.515 56.453 109.991 56.453 110.5C56.453 111.009 56.3573 111.487 56.166 111.935C55.9747 112.383 55.711 112.777 55.375 113.118C55.039 113.454 54.647 113.718 54.199 113.909C53.7557 114.1 53.2797 114.196 52.771 114.196C52.2763 114.196 51.847 114.084 51.483 113.86C51.119 113.631 50.8203 113.34 50.587 112.985V117.5ZM52.757 108.225C52.351 108.225 51.994 108.328 51.686 108.533C51.378 108.738 51.1377 109.014 50.965 109.359C50.7923 109.7 50.706 110.08 50.706 110.5C50.706 110.92 50.7923 111.303 50.965 111.648C51.1377 111.993 51.378 112.269 51.686 112.474C51.994 112.679 52.351 112.782 52.757 112.782C53.1583 112.782 53.527 112.682 53.863 112.481C54.199 112.276 54.4673 112 54.668 111.655C54.8687 111.31 54.969 110.925 54.969 110.5C54.969 110.085 54.8687 109.704 54.668 109.359C54.472 109.014 54.206 108.738 53.87 108.533C53.534 108.328 53.163 108.225 52.757 108.225ZM60.6602 114.182C60.0162 114.182 59.4282 114.016 58.8962 113.685C58.3689 113.354 57.9466 112.91 57.6292 112.355C57.3166 111.795 57.1602 111.177 57.1602 110.5C57.1602 109.987 57.2512 109.508 57.4332 109.065C57.6152 108.617 57.8649 108.225 58.1822 107.889C58.5042 107.548 58.8776 107.282 59.3022 107.091C59.7269 106.9 60.1796 106.804 60.6602 106.804C61.1969 106.804 61.6892 106.916 62.1372 107.14C62.5852 107.359 62.9679 107.665 63.2852 108.057C63.6026 108.444 63.8359 108.892 63.9852 109.401C64.1346 109.905 64.1789 110.442 64.1182 111.011H58.7212C58.7819 111.333 58.8986 111.625 59.0712 111.886C59.2486 112.143 59.4726 112.346 59.7432 112.495C60.0186 112.644 60.3242 112.721 60.6602 112.726C61.0149 112.726 61.3369 112.637 61.6262 112.46C61.9202 112.283 62.1606 112.038 62.3472 111.725L63.8242 112.068C63.5442 112.689 63.1219 113.197 62.5572 113.594C61.9926 113.986 61.3602 114.182 60.6602 114.182ZM58.6722 109.898H62.6482C62.6016 109.562 62.4826 109.259 62.2912 108.988C62.1046 108.713 61.8689 108.496 61.5842 108.337C61.3042 108.174 60.9962 108.092 60.6602 108.092C60.3289 108.092 60.0209 108.171 59.7362 108.33C59.4562 108.489 59.2229 108.706 59.0362 108.981C58.8542 109.252 58.7329 109.557 58.6722 109.898ZM65.2775 114V107H66.7335V107.742C66.9762 107.453 67.2748 107.224 67.6295 107.056C67.9842 106.888 68.3668 106.804 68.7775 106.804C69.0388 106.804 69.2978 106.839 69.5545 106.909L68.9735 108.379C68.7915 108.309 68.6095 108.274 68.4275 108.274C68.1195 108.274 67.8372 108.351 67.5805 108.505C67.3238 108.654 67.1185 108.857 66.9645 109.114C66.8105 109.371 66.7335 109.655 66.7335 109.968V114H65.2775ZM73.9045 114V104.2H79.9875V105.656H75.3605V108.022H79.0845V109.478H75.3605V112.544H79.9875V114H73.9045ZM87.8334 109.611V114H86.3774V109.968C86.3774 109.655 86.3004 109.371 86.1464 109.114C85.997 108.857 85.794 108.654 85.5374 108.505C85.2854 108.351 85.0007 108.274 84.6834 108.274C84.3754 108.274 84.093 108.351 83.8364 108.505C83.5797 108.654 83.3744 108.857 83.2204 109.114C83.0664 109.371 82.9894 109.655 82.9894 109.968V114H81.5334V107H82.9894V107.742C83.232 107.453 83.5307 107.224 83.8854 107.056C84.24 106.888 84.6227 106.804 85.0334 106.804C85.5514 106.804 86.0227 106.93 86.4474 107.182C86.872 107.434 87.208 107.772 87.4554 108.197C87.7074 108.622 87.8334 109.093 87.8334 109.611ZM92.1739 114.182C91.5299 114.182 90.9419 114.016 90.4099 113.685C89.8826 113.354 89.4602 112.91 89.1429 112.355C88.8302 111.795 88.6739 111.177 88.6739 110.5C88.6739 109.987 88.7649 109.508 88.9469 109.065C89.1289 108.617 89.3786 108.225 89.6959 107.889C90.0179 107.548 90.3912 107.282 90.8159 107.091C91.2406 106.9 91.6932 106.804 92.1739 106.804C92.7106 106.804 93.2029 106.916 93.6509 107.14C94.0989 107.359 94.4816 107.665 94.7989 108.057C95.1162 108.444 95.3496 108.892 95.4989 109.401C95.6482 109.905 95.6926 110.442 95.6319 111.011H90.2349C90.2956 111.333 90.4122 111.625 90.5849 111.886C90.7622 112.143 90.9862 112.346 91.2569 112.495C91.5322 112.644 91.8379 112.721 92.1739 112.726C92.5286 112.726 92.8506 112.637 93.1399 112.46C93.4339 112.283 93.6742 112.038 93.8609 111.725L95.3379 112.068C95.0579 112.689 94.6356 113.197 94.0709 113.594C93.5062 113.986 92.8739 114.182 92.1739 114.182ZM90.1859 109.898H94.1619C94.1152 109.562 93.9962 109.259 93.8049 108.988C93.6182 108.713 93.3826 108.496 93.0979 108.337C92.8179 108.174 92.5099 108.092 92.1739 108.092C91.8426 108.092 91.5346 108.171 91.2499 108.33C90.9699 108.489 90.7366 108.706 90.5499 108.981C90.3679 109.252 90.2466 109.557 90.1859 109.898ZM96.7912 114V107H98.2472V107.742C98.4898 107.453 98.7885 107.224 99.1432 107.056C99.4978 106.888 99.8805 106.804 100.291 106.804C100.553 106.804 100.812 106.839 101.068 106.909L100.487 108.379C100.305 108.309 100.123 108.274 99.9412 108.274C99.6332 108.274 99.3508 108.351 99.0942 108.505C98.8375 108.654 98.6322 108.857 98.4782 109.114C98.3242 109.371 98.2472 109.655 98.2472 109.968V114H96.7912ZM106.876 107H108.332V114.182C108.332 114.663 108.229 115.106 108.024 115.512C107.823 115.918 107.55 116.268 107.205 116.562C106.86 116.861 106.463 117.092 106.015 117.255C105.572 117.418 105.107 117.5 104.622 117.5C104.132 117.5 103.661 117.395 103.208 117.185C102.755 116.98 102.356 116.7 102.011 116.345C101.67 115.99 101.416 115.589 101.248 115.141L102.585 114.539C102.678 114.828 102.828 115.085 103.033 115.309C103.243 115.533 103.486 115.71 103.761 115.841C104.041 115.972 104.328 116.037 104.622 116.037C104.911 116.037 105.189 115.99 105.455 115.897C105.726 115.808 105.966 115.682 106.176 115.519C106.391 115.356 106.561 115.16 106.687 114.931C106.813 114.702 106.876 114.453 106.876 114.182V112.999C106.647 113.354 106.353 113.641 105.994 113.86C105.635 114.075 105.217 114.182 104.741 114.182C104.246 114.182 103.78 114.086 103.341 113.895C102.902 113.704 102.517 113.44 102.186 113.104C101.855 112.763 101.596 112.371 101.409 111.928C101.222 111.485 101.129 111.009 101.129 110.5C101.129 109.991 101.222 109.515 101.409 109.072C101.596 108.624 101.855 108.232 102.186 107.896C102.517 107.555 102.902 107.289 103.341 107.098C103.78 106.907 104.246 106.811 104.741 106.811C105.217 106.811 105.635 106.921 105.994 107.14C106.353 107.355 106.647 107.642 106.876 108.001V107ZM104.755 112.775C105.161 112.775 105.516 112.672 105.819 112.467C106.122 112.257 106.358 111.979 106.526 111.634C106.694 111.289 106.778 110.911 106.778 110.5C106.778 110.08 106.692 109.7 106.519 109.359C106.351 109.014 106.115 108.738 105.812 108.533C105.509 108.323 105.156 108.218 104.755 108.218C104.363 108.218 104.004 108.321 103.677 108.526C103.355 108.731 103.098 109.007 102.907 109.352C102.716 109.697 102.62 110.08 102.62 110.5C102.62 110.92 102.716 111.303 102.907 111.648C103.103 111.993 103.362 112.269 103.684 112.474C104.011 112.675 104.368 112.775 104.755 112.775ZM114.369 107H115.923L112.087 117.5H110.54L111.807 114L109.294 107H110.883L112.535 112.005L114.369 107Z" fill="#2E2E38"/>
<path d="M18.714 139.156C18.254 139.156 17.812 139.084 17.388 138.94C16.964 138.796 16.594 138.59 16.278 138.322C15.962 138.05 15.736 137.728 15.6 137.356L16.77 136.918C16.838 137.11 16.968 137.282 17.16 137.434C17.356 137.582 17.588 137.698 17.856 137.782C18.128 137.866 18.414 137.908 18.714 137.908C19.034 137.908 19.334 137.856 19.614 137.752C19.898 137.648 20.126 137.504 20.298 137.32C20.474 137.136 20.562 136.92 20.562 136.672C20.562 136.416 20.47 136.206 20.286 136.042C20.106 135.878 19.874 135.748 19.59 135.652C19.31 135.556 19.018 135.484 18.714 135.436C18.126 135.34 17.598 135.2 17.13 135.016C16.666 134.832 16.298 134.574 16.026 134.242C15.758 133.91 15.624 133.478 15.624 132.946C15.624 132.446 15.766 132.01 16.05 131.638C16.338 131.266 16.716 130.978 17.184 130.774C17.656 130.566 18.166 130.462 18.714 130.462C19.166 130.462 19.602 130.534 20.022 130.678C20.446 130.818 20.818 131.024 21.138 131.296C21.462 131.564 21.694 131.89 21.834 132.274L20.652 132.7C20.584 132.504 20.454 132.334 20.262 132.19C20.07 132.042 19.838 131.926 19.566 131.842C19.298 131.758 19.014 131.716 18.714 131.716C18.394 131.712 18.094 131.764 17.814 131.872C17.538 131.976 17.312 132.12 17.136 132.304C16.96 132.488 16.872 132.702 16.872 132.946C16.872 133.246 16.954 133.474 17.118 133.63C17.282 133.786 17.502 133.902 17.778 133.978C18.058 134.05 18.37 134.116 18.714 134.176C19.266 134.264 19.776 134.41 20.244 134.614C20.716 134.818 21.094 135.09 21.378 135.43C21.666 135.766 21.81 136.18 21.81 136.672C21.81 137.168 21.666 137.604 21.378 137.98C21.094 138.352 20.716 138.642 20.244 138.85C19.776 139.054 19.266 139.156 18.714 139.156ZM27.6653 133H28.9133V139H27.6593L27.6113 138.13C27.4353 138.438 27.1973 138.686 26.8973 138.874C26.5973 139.062 26.2433 139.156 25.8353 139.156C25.3953 139.156 24.9813 139.074 24.5933 138.91C24.2053 138.742 23.8633 138.51 23.5673 138.214C23.2753 137.918 23.0473 137.578 22.8833 137.194C22.7193 136.806 22.6373 136.39 22.6373 135.946C22.6373 135.518 22.7173 135.116 22.8773 134.74C23.0373 134.36 23.2593 134.028 23.5433 133.744C23.8273 133.46 24.1553 133.238 24.5273 133.078C24.9033 132.914 25.3053 132.832 25.7333 132.832C26.1693 132.832 26.5533 132.932 26.8853 133.132C27.2213 133.328 27.4993 133.58 27.7193 133.888L27.6653 133ZM25.8053 137.95C26.1573 137.95 26.4653 137.864 26.7293 137.692C26.9933 137.516 27.1973 137.28 27.3413 136.984C27.4893 136.688 27.5633 136.36 27.5633 136C27.5633 135.636 27.4893 135.306 27.3413 135.01C27.1933 134.714 26.9873 134.48 26.7233 134.308C26.4633 134.132 26.1573 134.044 25.8053 134.044C25.4573 134.044 25.1393 134.132 24.8513 134.308C24.5633 134.484 24.3353 134.72 24.1673 135.016C23.9993 135.312 23.9153 135.64 23.9153 136C23.9153 136.364 24.0013 136.694 24.1733 136.99C24.3493 137.282 24.5793 137.516 24.8633 137.692C25.1513 137.864 25.4653 137.95 25.8053 137.95ZM33.32 139H31.718L29.528 132.988H30.86L32.516 137.56L34.178 132.988H35.504L33.32 139ZM38.8327 139.156C38.2807 139.156 37.7767 139.014 37.3207 138.73C36.8687 138.446 36.5067 138.066 36.2347 137.59C35.9667 137.11 35.8327 136.58 35.8327 136C35.8327 135.56 35.9107 135.15 36.0667 134.77C36.2227 134.386 36.4367 134.05 36.7087 133.762C36.9847 133.47 37.3047 133.242 37.6687 133.078C38.0327 132.914 38.4207 132.832 38.8327 132.832C39.2927 132.832 39.7147 132.928 40.0987 133.12C40.4827 133.308 40.8107 133.57 41.0827 133.906C41.3547 134.238 41.5547 134.622 41.6827 135.058C41.8107 135.49 41.8487 135.95 41.7967 136.438H37.1707C37.2227 136.714 37.3227 136.964 37.4707 137.188C37.6227 137.408 37.8147 137.582 38.0467 137.71C38.2827 137.838 38.5447 137.904 38.8327 137.908C39.1367 137.908 39.4127 137.832 39.6607 137.68C39.9127 137.528 40.1187 137.318 40.2787 137.05L41.5447 137.344C41.3047 137.876 40.9427 138.312 40.4587 138.652C39.9747 138.988 39.4327 139.156 38.8327 139.156ZM37.1287 135.484H40.5367C40.4967 135.196 40.3947 134.936 40.2307 134.704C40.0707 134.468 39.8687 134.282 39.6247 134.146C39.3847 134.006 39.1207 133.936 38.8327 133.936C38.5487 133.936 38.2847 134.004 38.0407 134.14C37.8007 134.276 37.6007 134.462 37.4407 134.698C37.2847 134.93 37.1807 135.192 37.1287 135.484ZM48.4186 139.156C47.8666 139.156 47.3626 139.014 46.9066 138.73C46.4546 138.446 46.0926 138.066 45.8206 137.59C45.5526 137.11 45.4186 136.58 45.4186 136C45.4186 135.56 45.4966 135.15 45.6526 134.77C45.8086 134.386 46.0226 134.05 46.2946 133.762C46.5706 133.47 46.8906 133.242 47.2546 133.078C47.6186 132.914 48.0066 132.832 48.4186 132.832C48.9706 132.832 49.4726 132.974 49.9246 133.258C50.3806 133.542 50.7426 133.924 51.0106 134.404C51.2826 134.884 51.4186 135.416 51.4186 136C51.4186 136.436 51.3406 136.844 51.1846 137.224C51.0286 137.604 50.8126 137.94 50.5366 138.232C50.2646 138.52 49.9466 138.746 49.5826 138.91C49.2226 139.074 48.8346 139.156 48.4186 139.156ZM48.4186 137.908C48.7506 137.908 49.0486 137.82 49.3126 137.644C49.5766 137.468 49.7846 137.236 49.9366 136.948C50.0926 136.656 50.1706 136.34 50.1706 136C50.1706 135.652 50.0906 135.332 49.9306 135.04C49.7746 134.748 49.5646 134.516 49.3006 134.344C49.0366 134.168 48.7426 134.08 48.4186 134.08C48.0906 134.08 47.7926 134.168 47.5246 134.344C47.2606 134.52 47.0506 134.754 46.8946 135.046C46.7426 135.338 46.6666 135.656 46.6666 136C46.6666 136.356 46.7466 136.678 46.9066 136.966C47.0666 137.254 47.2786 137.484 47.5426 137.656C47.8106 137.824 48.1026 137.908 48.4186 137.908ZM57.788 135.238V139H56.54V135.544C56.54 135.276 56.474 135.032 56.342 134.812C56.214 134.592 56.04 134.418 55.82 134.29C55.604 134.158 55.36 134.092 55.088 134.092C54.824 134.092 54.582 134.158 54.362 134.29C54.142 134.418 53.966 134.592 53.834 134.812C53.702 135.032 53.636 135.276 53.636 135.544V139H52.388V133H53.636V133.636C53.844 133.388 54.1 133.192 54.404 133.048C54.708 132.904 55.036 132.832 55.388 132.832C55.832 132.832 56.236 132.94 56.6 133.156C56.964 133.372 57.252 133.662 57.464 134.026C57.68 134.39 57.788 134.794 57.788 135.238ZM64.5084 139.156C63.9564 139.156 63.4524 139.014 62.9964 138.73C62.5444 138.446 62.1824 138.066 61.9104 137.59C61.6424 137.11 61.5084 136.58 61.5084 136C61.5084 135.56 61.5864 135.15 61.7424 134.77C61.8984 134.386 62.1124 134.05 62.3844 133.762C62.6604 133.47 62.9804 133.242 63.3444 133.078C63.7084 132.914 64.0964 132.832 64.5084 132.832C65.0604 132.832 65.5624 132.974 66.0144 133.258C66.4704 133.542 66.8324 133.924 67.1004 134.404C67.3724 134.884 67.5084 135.416 67.5084 136C67.5084 136.436 67.4304 136.844 67.2744 137.224C67.1184 137.604 66.9024 137.94 66.6264 138.232C66.3544 138.52 66.0364 138.746 65.6724 138.91C65.3124 139.074 64.9244 139.156 64.5084 139.156ZM64.5084 137.908C64.8404 137.908 65.1384 137.82 65.4024 137.644C65.6664 137.468 65.8744 137.236 66.0264 136.948C66.1824 136.656 66.2604 136.34 66.2604 136C66.2604 135.652 66.1804 135.332 66.0204 135.04C65.8644 134.748 65.6544 134.516 65.3904 134.344C65.1264 134.168 64.8324 134.08 64.5084 134.08C64.1804 134.08 63.8824 134.168 63.6144 134.344C63.3504 134.52 63.1404 134.754 62.9844 135.046C62.8324 135.338 62.7564 135.656 62.7564 136C62.7564 136.356 62.8364 136.678 62.9964 136.966C63.1564 137.254 63.3684 137.484 63.6324 137.656C63.9004 137.824 64.1924 137.908 64.5084 137.908ZM69.7258 142H68.4778V133H69.7258V133.882C69.9258 133.574 70.1818 133.324 70.4938 133.132C70.8058 132.94 71.1738 132.844 71.5978 132.844C72.0338 132.844 72.4418 132.926 72.8218 133.09C73.2058 133.254 73.5418 133.482 73.8298 133.774C74.1178 134.062 74.3438 134.396 74.5078 134.776C74.6718 135.156 74.7538 135.564 74.7538 136C74.7538 136.436 74.6718 136.846 74.5078 137.23C74.3438 137.614 74.1178 137.952 73.8298 138.244C73.5418 138.532 73.2058 138.758 72.8218 138.922C72.4418 139.086 72.0338 139.168 71.5978 139.168C71.1738 139.168 70.8058 139.072 70.4938 138.88C70.1818 138.684 69.9258 138.434 69.7258 138.13V142ZM71.5858 134.05C71.2378 134.05 70.9318 134.138 70.6678 134.314C70.4038 134.49 70.1978 134.726 70.0498 135.022C69.9018 135.314 69.8278 135.64 69.8278 136C69.8278 136.36 69.9018 136.688 70.0498 136.984C70.1978 137.28 70.4038 137.516 70.6678 137.692C70.9318 137.868 71.2378 137.956 71.5858 137.956C71.9298 137.956 72.2458 137.87 72.5338 137.698C72.8218 137.522 73.0518 137.286 73.2238 136.99C73.3958 136.694 73.4818 136.364 73.4818 136C73.4818 135.644 73.3958 135.318 73.2238 135.022C73.0558 134.726 72.8278 134.49 72.5398 134.314C72.2518 134.138 71.9338 134.05 71.5858 134.05ZM78.36 139.156C77.808 139.156 77.304 139.014 76.848 138.73C76.396 138.446 76.034 138.066 75.762 137.59C75.494 137.11 75.36 136.58 75.36 136C75.36 135.56 75.438 135.15 75.594 134.77C75.75 134.386 75.964 134.05 76.236 133.762C76.512 133.47 76.832 133.242 77.196 133.078C77.56 132.914 77.948 132.832 78.36 132.832C78.82 132.832 79.242 132.928 79.626 133.12C80.01 133.308 80.338 133.57 80.61 133.906C80.882 134.238 81.082 134.622 81.21 135.058C81.338 135.49 81.376 135.95 81.324 136.438H76.698C76.75 136.714 76.85 136.964 76.998 137.188C77.15 137.408 77.342 137.582 77.574 137.71C77.81 137.838 78.072 137.904 78.36 137.908C78.664 137.908 78.94 137.832 79.188 137.68C79.44 137.528 79.646 137.318 79.806 137.05L81.072 137.344C80.832 137.876 80.47 138.312 79.986 138.652C79.502 138.988 78.96 139.156 78.36 139.156ZM76.656 135.484H80.064C80.024 135.196 79.922 134.936 79.758 134.704C79.598 134.468 79.396 134.282 79.152 134.146C78.912 134.006 78.648 133.936 78.36 133.936C78.076 133.936 77.812 134.004 77.568 134.14C77.328 134.276 77.128 134.462 76.968 134.698C76.812 134.93 76.708 135.192 76.656 135.484ZM82.3177 139V133H83.5657V133.636C83.7737 133.388 84.0297 133.192 84.3337 133.048C84.6377 132.904 84.9657 132.832 85.3177 132.832C85.5417 132.832 85.7637 132.862 85.9837 132.922L85.4857 134.182C85.3297 134.122 85.1737 134.092 85.0177 134.092C84.7537 134.092 84.5117 134.158 84.2917 134.29C84.0717 134.418 83.8957 134.592 83.7637 134.812C83.6317 135.032 83.5657 135.276 83.5657 135.544V139H82.3177ZM91.0638 133H92.3118V139H91.0578L91.0098 138.13C90.8338 138.438 90.5958 138.686 90.2958 138.874C89.9958 139.062 89.6418 139.156 89.2338 139.156C88.7938 139.156 88.3798 139.074 87.9918 138.91C87.6038 138.742 87.2618 138.51 86.9658 138.214C86.6738 137.918 86.4458 137.578 86.2818 137.194C86.1178 136.806 86.0358 136.39 86.0358 135.946C86.0358 135.518 86.1158 135.116 86.2758 134.74C86.4358 134.36 86.6578 134.028 86.9418 133.744C87.2258 133.46 87.5538 133.238 87.9258 133.078C88.3018 132.914 88.7038 132.832 89.1318 132.832C89.5678 132.832 89.9518 132.932 90.2838 133.132C90.6198 133.328 90.8978 133.58 91.1178 133.888L91.0638 133ZM89.2038 137.95C89.5558 137.95 89.8638 137.864 90.1278 137.692C90.3918 137.516 90.5958 137.28 90.7398 136.984C90.8878 136.688 90.9618 136.36 90.9618 136C90.9618 135.636 90.8878 135.306 90.7398 135.01C90.5918 134.714 90.3858 134.48 90.1218 134.308C89.8618 134.132 89.5558 134.044 89.2038 134.044C88.8558 134.044 88.5378 134.132 88.2498 134.308C87.9618 134.484 87.7338 134.72 87.5658 135.016C87.3978 135.312 87.3138 135.64 87.3138 136C87.3138 136.364 87.3998 136.694 87.5718 136.99C87.7478 137.282 87.9778 137.516 88.2618 137.692C88.5498 137.864 88.8638 137.95 89.2038 137.95ZM96.6771 134.248H95.4171L95.4111 139H94.1631L94.1691 134.248H93.2151V133H94.1691L94.1631 131.116H95.4111L95.4171 133H96.6771V134.248ZM97.6692 133H98.9172V139H97.6692V133ZM98.3052 132.13C98.1132 132.13 97.9532 132.068 97.8252 131.944C97.6972 131.82 97.6332 131.664 97.6332 131.476C97.6332 131.292 97.6972 131.138 97.8252 131.014C97.9532 130.886 98.1112 130.822 98.2992 130.822C98.4832 130.822 98.6392 130.886 98.7672 131.014C98.8952 131.138 98.9592 131.292 98.9592 131.476C98.9592 131.664 98.8952 131.82 98.7672 131.944C98.6432 132.068 98.4892 132.13 98.3052 132.13ZM102.887 139.156C102.335 139.156 101.831 139.014 101.375 138.73C100.923 138.446 100.561 138.066 100.289 137.59C100.021 137.11 99.8873 136.58 99.8873 136C99.8873 135.56 99.9653 135.15 100.121 134.77C100.277 134.386 100.491 134.05 100.763 133.762C101.039 133.47 101.359 133.242 101.723 133.078C102.087 132.914 102.475 132.832 102.887 132.832C103.439 132.832 103.941 132.974 104.393 133.258C104.849 133.542 105.211 133.924 105.479 134.404C105.751 134.884 105.887 135.416 105.887 136C105.887 136.436 105.809 136.844 105.653 137.224C105.497 137.604 105.281 137.94 105.005 138.232C104.733 138.52 104.415 138.746 104.051 138.91C103.691 139.074 103.303 139.156 102.887 139.156ZM102.887 137.908C103.219 137.908 103.517 137.82 103.781 137.644C104.045 137.468 104.253 137.236 104.405 136.948C104.561 136.656 104.639 136.34 104.639 136C104.639 135.652 104.559 135.332 104.399 135.04C104.243 134.748 104.033 134.516 103.769 134.344C103.505 134.168 103.211 134.08 102.887 134.08C102.559 134.08 102.261 134.168 101.993 134.344C101.729 134.52 101.519 134.754 101.363 135.046C101.211 135.338 101.135 135.656 101.135 136C101.135 136.356 101.215 136.678 101.375 136.966C101.535 137.254 101.747 137.484 102.011 137.656C102.279 137.824 102.571 137.908 102.887 137.908ZM112.257 135.238V139H111.009V135.544C111.009 135.276 110.943 135.032 110.811 134.812C110.683 134.592 110.509 134.418 110.289 134.29C110.073 134.158 109.829 134.092 109.557 134.092C109.293 134.092 109.051 134.158 108.831 134.29C108.611 134.418 108.435 134.592 108.303 134.812C108.171 135.032 108.105 135.276 108.105 135.544V139H106.857V133H108.105V133.636C108.313 133.388 108.569 133.192 108.873 133.048C109.177 132.904 109.505 132.832 109.857 132.832C110.301 132.832 110.705 132.94 111.069 133.156C111.433 133.372 111.721 133.662 111.933 134.026C112.149 134.39 112.257 134.794 112.257 135.238ZM118.005 133H119.253V139H117.999L117.951 138.13C117.775 138.438 117.537 138.686 117.237 138.874C116.937 139.062 116.583 139.156 116.175 139.156C115.735 139.156 115.321 139.074 114.933 138.91C114.545 138.742 114.203 138.51 113.907 138.214C113.615 137.918 113.387 137.578 113.223 137.194C113.059 136.806 112.977 136.39 112.977 135.946C112.977 135.518 113.057 135.116 113.217 134.74C113.377 134.36 113.599 134.028 113.883 133.744C114.167 133.46 114.495 133.238 114.867 133.078C115.243 132.914 115.645 132.832 116.073 132.832C116.509 132.832 116.893 132.932 117.225 133.132C117.561 133.328 117.839 133.58 118.059 133.888L118.005 133ZM116.145 137.95C116.497 137.95 116.805 137.864 117.069 137.692C117.333 137.516 117.537 137.28 117.681 136.984C117.829 136.688 117.903 136.36 117.903 136C117.903 135.636 117.829 135.306 117.681 135.01C117.533 134.714 117.327 134.48 117.063 134.308C116.803 134.132 116.497 134.044 116.145 134.044C115.797 134.044 115.479 134.132 115.191 134.308C114.903 134.484 114.675 134.72 114.507 135.016C114.339 135.312 114.255 135.64 114.255 136C114.255 136.364 114.341 136.694 114.513 136.99C114.689 137.282 114.919 137.516 115.203 137.692C115.491 137.864 115.805 137.95 116.145 137.95ZM120.497 139V130H121.745V139H120.497ZM19.638 151.296L20.754 151.902C20.482 152.282 20.136 152.586 19.716 152.814C19.3 153.042 18.848 153.156 18.36 153.156C17.808 153.156 17.304 153.014 16.848 152.73C16.396 152.446 16.034 152.066 15.762 151.59C15.494 151.11 15.36 150.58 15.36 150C15.36 149.56 15.438 149.15 15.594 148.77C15.75 148.386 15.964 148.05 16.236 147.762C16.512 147.47 16.832 147.242 17.196 147.078C17.56 146.914 17.948 146.832 18.36 146.832C18.848 146.832 19.3 146.946 19.716 147.174C20.136 147.402 20.482 147.708 20.754 148.092L19.638 148.698C19.47 148.498 19.274 148.346 19.05 148.242C18.826 148.134 18.596 148.08 18.36 148.08C18.032 148.08 17.734 148.17 17.466 148.35C17.202 148.526 16.992 148.76 16.836 149.052C16.684 149.34 16.608 149.656 16.608 150C16.608 150.34 16.686 150.656 16.842 150.948C16.998 151.236 17.208 151.468 17.472 151.644C17.74 151.82 18.036 151.908 18.36 151.908C18.608 151.908 18.844 151.852 19.068 151.74C19.292 151.628 19.482 151.48 19.638 151.296ZM24.3248 153.156C23.7728 153.156 23.2688 153.014 22.8128 152.73C22.3608 152.446 21.9988 152.066 21.7268 151.59C21.4588 151.11 21.3248 150.58 21.3248 150C21.3248 149.56 21.4028 149.15 21.5588 148.77C21.7148 148.386 21.9288 148.05 22.2008 147.762C22.4768 147.47 22.7968 147.242 23.1608 147.078C23.5248 146.914 23.9128 146.832 24.3248 146.832C24.8768 146.832 25.3788 146.974 25.8308 147.258C26.2868 147.542 26.6488 147.924 26.9168 148.404C27.1888 148.884 27.3248 149.416 27.3248 150C27.3248 150.436 27.2468 150.844 27.0908 151.224C26.9348 151.604 26.7188 151.94 26.4428 152.232C26.1708 152.52 25.8528 152.746 25.4888 152.91C25.1288 153.074 24.7408 153.156 24.3248 153.156ZM24.3248 151.908C24.6568 151.908 24.9548 151.82 25.2188 151.644C25.4828 151.468 25.6908 151.236 25.8428 150.948C25.9988 150.656 26.0768 150.34 26.0768 150C26.0768 149.652 25.9968 149.332 25.8368 149.04C25.6808 148.748 25.4708 148.516 25.2068 148.344C24.9428 148.168 24.6488 148.08 24.3248 148.08C23.9968 148.08 23.6988 148.168 23.4308 148.344C23.1668 148.52 22.9568 148.754 22.8008 149.046C22.6488 149.338 22.5728 149.656 22.5728 150C22.5728 150.356 22.6528 150.678 22.8128 150.966C22.9728 151.254 23.1848 151.484 23.4488 151.656C23.7168 151.824 24.0088 151.908 24.3248 151.908ZM30.1177 153.114C29.8017 153.094 29.4937 153.03 29.1937 152.922C28.8937 152.814 28.6297 152.668 28.4017 152.484C28.1777 152.296 28.0097 152.076 27.8977 151.824L28.9597 151.368C29.0117 151.476 29.1017 151.582 29.2297 151.686C29.3617 151.79 29.5157 151.876 29.6917 151.944C29.8677 152.008 30.0517 152.04 30.2437 152.04C30.4317 152.04 30.6057 152.014 30.7657 151.962C30.9297 151.906 31.0637 151.822 31.1677 151.71C31.2717 151.598 31.3237 151.464 31.3237 151.308C31.3237 151.132 31.2637 150.996 31.1437 150.9C31.0277 150.8 30.8817 150.724 30.7057 150.672C30.5297 150.62 30.3537 150.57 30.1777 150.522C29.7857 150.434 29.4257 150.314 29.0977 150.162C28.7737 150.006 28.5157 149.808 28.3237 149.568C28.1317 149.324 28.0357 149.026 28.0357 148.674C28.0357 148.29 28.1397 147.958 28.3477 147.678C28.5557 147.394 28.8277 147.176 29.1637 147.024C29.5037 146.872 29.8657 146.796 30.2497 146.796C30.7297 146.796 31.1697 146.898 31.5697 147.102C31.9697 147.306 32.2757 147.586 32.4877 147.942L31.4977 148.53C31.4377 148.41 31.3477 148.302 31.2277 148.206C31.1077 148.11 30.9717 148.034 30.8197 147.978C30.6677 147.918 30.5097 147.884 30.3457 147.876C30.1417 147.868 29.9517 147.892 29.7757 147.948C29.6037 148 29.4657 148.084 29.3617 148.2C29.2577 148.316 29.2057 148.464 29.2057 148.644C29.2057 148.82 29.2677 148.952 29.3917 149.04C29.5157 149.124 29.6717 149.192 29.8597 149.244C30.0517 149.296 30.2477 149.354 30.4477 149.418C30.8037 149.53 31.1377 149.668 31.4497 149.832C31.7617 149.992 32.0137 150.19 32.2057 150.426C32.3977 150.662 32.4897 150.95 32.4817 151.29C32.4817 151.666 32.3677 151.996 32.1397 152.28C31.9157 152.564 31.6237 152.78 31.2637 152.928C30.9037 153.076 30.5217 153.138 30.1177 153.114ZM36.6771 148.248H35.4171L35.4111 153H34.1631L34.1691 148.248H33.2151V147H34.1691L34.1631 145.116H35.4111L35.4171 147H36.6771V148.248ZM39.4692 153.114C39.1532 153.094 38.8452 153.03 38.5452 152.922C38.2452 152.814 37.9812 152.668 37.7532 152.484C37.5292 152.296 37.3612 152.076 37.2492 151.824L38.3112 151.368C38.3632 151.476 38.4532 151.582 38.5812 151.686C38.7132 151.79 38.8672 151.876 39.0432 151.944C39.2192 152.008 39.4032 152.04 39.5952 152.04C39.7832 152.04 39.9572 152.014 40.1172 151.962C40.2812 151.906 40.4152 151.822 40.5192 151.71C40.6232 151.598 40.6752 151.464 40.6752 151.308C40.6752 151.132 40.6152 150.996 40.4952 150.9C40.3792 150.8 40.2332 150.724 40.0572 150.672C39.8812 150.62 39.7052 150.57 39.5292 150.522C39.1372 150.434 38.7772 150.314 38.4492 150.162C38.1252 150.006 37.8672 149.808 37.6752 149.568C37.4832 149.324 37.3872 149.026 37.3872 148.674C37.3872 148.29 37.4912 147.958 37.6992 147.678C37.9072 147.394 38.1792 147.176 38.5152 147.024C38.8552 146.872 39.2172 146.796 39.6012 146.796C40.0812 146.796 40.5212 146.898 40.9212 147.102C41.3212 147.306 41.6272 147.586 41.8392 147.942L40.8492 148.53C40.7892 148.41 40.6992 148.302 40.5792 148.206C40.4592 148.11 40.3232 148.034 40.1712 147.978C40.0192 147.918 39.8612 147.884 39.6972 147.876C39.4932 147.868 39.3032 147.892 39.1272 147.948C38.9552 148 38.8172 148.084 38.7132 148.2C38.6092 148.316 38.5572 148.464 38.5572 148.644C38.5572 148.82 38.6192 148.952 38.7432 149.04C38.8672 149.124 39.0232 149.192 39.2112 149.244C39.4032 149.296 39.5992 149.354 39.7992 149.418C40.1552 149.53 40.4892 149.668 40.8012 149.832C41.1132 149.992 41.3652 150.19 41.5572 150.426C41.7492 150.662 41.8412 150.95 41.8332 151.29C41.8332 151.666 41.7192 151.996 41.4912 152.28C41.2672 152.564 40.9752 152.78 40.6152 152.928C40.2552 153.076 39.8732 153.138 39.4692 153.114ZM48.6354 153H47.3934L45.3834 147H46.6074L48.0234 151.212L49.4274 147H50.6874L52.0914 151.212L53.5014 147H54.7254L52.7214 153H51.4674L50.0514 148.758L48.6354 153ZM55.6575 147H56.9055V153H55.6575V147ZM56.2935 146.13C56.1015 146.13 55.9415 146.068 55.8135 145.944C55.6855 145.82 55.6215 145.664 55.6215 145.476C55.6215 145.292 55.6855 145.138 55.8135 145.014C55.9415 144.886 56.0995 144.822 56.2875 144.822C56.4715 144.822 56.6275 144.886 56.7555 145.014C56.8835 145.138 56.9475 145.292 56.9475 145.476C56.9475 145.664 56.8835 145.82 56.7555 145.944C56.6315 146.068 56.4775 146.13 56.2935 146.13ZM61.5091 148.248H60.2491L60.2431 153H58.9951L59.0011 148.248H58.0471V147H59.0011L58.9951 145.116H60.2431L60.2491 147H61.5091V148.248ZM67.9833 149.238V153H66.7353V149.544C66.7353 149.276 66.6693 149.032 66.5373 148.812C66.4093 148.592 66.2353 148.418 66.0153 148.29C65.7993 148.158 65.5553 148.092 65.2833 148.092C65.0193 148.092 64.7773 148.158 64.5573 148.29C64.3373 148.418 64.1613 148.592 64.0293 148.812C63.8973 149.032 63.8313 149.276 63.8313 149.544V153H62.5833V144H63.8313V147.636C64.0393 147.388 64.2953 147.192 64.5993 147.048C64.9033 146.904 65.2313 146.832 65.5833 146.832C66.0273 146.832 66.4313 146.94 66.7953 147.156C67.1593 147.372 67.4473 147.662 67.6593 148.026C67.8753 148.39 67.9833 148.794 67.9833 149.238ZM73.8638 153.114C73.5478 153.094 73.2398 153.03 72.9398 152.922C72.6398 152.814 72.3758 152.668 72.1478 152.484C71.9238 152.296 71.7558 152.076 71.6438 151.824L72.7058 151.368C72.7578 151.476 72.8478 151.582 72.9758 151.686C73.1078 151.79 73.2618 151.876 73.4378 151.944C73.6138 152.008 73.7978 152.04 73.9898 152.04C74.1778 152.04 74.3518 152.014 74.5117 151.962C74.6758 151.906 74.8098 151.822 74.9138 151.71C75.0178 151.598 75.0698 151.464 75.0698 151.308C75.0698 151.132 75.0098 150.996 74.8898 150.9C74.7738 150.8 74.6278 150.724 74.4518 150.672C74.2758 150.62 74.0998 150.57 73.9238 150.522C73.5318 150.434 73.1718 150.314 72.8438 150.162C72.5198 150.006 72.2618 149.808 72.0698 149.568C71.8778 149.324 71.7818 149.026 71.7818 148.674C71.7818 148.29 71.8858 147.958 72.0938 147.678C72.3018 147.394 72.5738 147.176 72.9098 147.024C73.2498 146.872 73.6118 146.796 73.9958 146.796C74.4758 146.796 74.9158 146.898 75.3158 147.102C75.7158 147.306 76.0218 147.586 76.2338 147.942L75.2438 148.53C75.1838 148.41 75.0938 148.302 74.9738 148.206C74.8538 148.11 74.7178 148.034 74.5658 147.978C74.4138 147.918 74.2558 147.884 74.0918 147.876C73.8878 147.868 73.6978 147.892 73.5218 147.948C73.3498 148 73.2118 148.084 73.1077 148.2C73.0038 148.316 72.9518 148.464 72.9518 148.644C72.9518 148.82 73.0138 148.952 73.1378 149.04C73.2618 149.124 73.4178 149.192 73.6058 149.244C73.7978 149.296 73.9938 149.354 74.1938 149.418C74.5498 149.53 74.8838 149.668 75.1958 149.832C75.5078 149.992 75.7598 150.19 75.9518 150.426C76.1438 150.662 76.2358 150.95 76.2278 151.29C76.2278 151.666 76.1138 151.996 75.8858 152.28C75.6618 152.564 75.3698 152.78 75.0098 152.928C74.6498 153.076 74.2678 153.138 73.8638 153.114ZM79.8131 153.156C79.2611 153.156 78.7571 153.014 78.3011 152.73C77.8491 152.446 77.4871 152.066 77.2151 151.59C76.9471 151.11 76.8131 150.58 76.8131 150C76.8131 149.56 76.8911 149.15 77.0471 148.77C77.2031 148.386 77.4171 148.05 77.6891 147.762C77.9651 147.47 78.2851 147.242 78.6491 147.078C79.0131 146.914 79.4011 146.832 79.8131 146.832C80.3651 146.832 80.8671 146.974 81.3191 147.258C81.7751 147.542 82.1371 147.924 82.4051 148.404C82.6771 148.884 82.8131 149.416 82.8131 150C82.8131 150.436 82.7351 150.844 82.5791 151.224C82.4231 151.604 82.2071 151.94 81.9311 152.232C81.6591 152.52 81.3411 152.746 80.9771 152.91C80.6171 153.074 80.2291 153.156 79.8131 153.156ZM79.8131 151.908C80.1451 151.908 80.4431 151.82 80.7071 151.644C80.9711 151.468 81.1791 151.236 81.3311 150.948C81.4871 150.656 81.5651 150.34 81.5651 150C81.5651 149.652 81.4851 149.332 81.3251 149.04C81.1691 148.748 80.9591 148.516 80.6951 148.344C80.4311 148.168 80.1371 148.08 79.8131 148.08C79.4851 148.08 79.1871 148.168 78.9191 148.344C78.6551 148.52 78.4451 148.754 78.2891 149.046C78.1371 149.338 78.0611 149.656 78.0611 150C78.0611 150.356 78.1411 150.678 78.3011 150.966C78.4611 151.254 78.6731 151.484 78.9371 151.656C79.2051 151.824 79.4971 151.908 79.8131 151.908ZM83.7005 153V144H84.9485V153H83.7005ZM90.97 147H92.218V153H90.964L90.916 152.13C90.74 152.438 90.502 152.686 90.202 152.874C89.902 153.062 89.548 153.156 89.14 153.156C88.7 153.156 88.286 153.074 87.898 152.91C87.51 152.742 87.168 152.51 86.872 152.214C86.58 151.918 86.352 151.578 86.188 151.194C86.024 150.806 85.942 150.39 85.942 149.946C85.942 149.518 86.022 149.116 86.182 148.74C86.342 148.36 86.564 148.028 86.848 147.744C87.132 147.46 87.46 147.238 87.832 147.078C88.208 146.914 88.61 146.832 89.038 146.832C89.474 146.832 89.858 146.932 90.19 147.132C90.526 147.328 90.804 147.58 91.024 147.888L90.97 147ZM89.11 151.95C89.462 151.95 89.77 151.864 90.034 151.692C90.298 151.516 90.502 151.28 90.646 150.984C90.794 150.688 90.868 150.36 90.868 150C90.868 149.636 90.794 149.306 90.646 149.01C90.498 148.714 90.292 148.48 90.028 148.308C89.768 148.132 89.462 148.044 89.11 148.044C88.762 148.044 88.444 148.132 88.156 148.308C87.868 148.484 87.64 148.72 87.472 149.016C87.304 149.312 87.22 149.64 87.22 150C87.22 150.364 87.306 150.694 87.478 150.99C87.654 151.282 87.884 151.516 88.168 151.692C88.456 151.864 88.77 151.95 89.11 151.95ZM93.4153 153V147H94.6633V147.636C94.8713 147.388 95.1273 147.192 95.4313 147.048C95.7353 146.904 96.0633 146.832 96.4153 146.832C96.6393 146.832 96.8613 146.862 97.0813 146.922L96.5833 148.182C96.4273 148.122 96.2713 148.092 96.1153 148.092C95.8513 148.092 95.6093 148.158 95.3893 148.29C95.1693 148.418 94.9933 148.592 94.8613 148.812C94.7293 149.032 94.6633 149.276 94.6633 149.544V153H93.4153ZM97.8606 153.156C97.6766 153.156 97.5206 153.092 97.3926 152.964C97.2686 152.836 97.2066 152.68 97.2066 152.496C97.2066 152.316 97.2686 152.162 97.3926 152.034C97.5206 151.906 97.6766 151.842 97.8606 151.842C98.0446 151.842 98.2006 151.906 98.3286 152.034C98.4566 152.162 98.5206 152.316 98.5206 152.496C98.5206 152.68 98.4566 152.836 98.3286 152.964C98.2006 153.092 98.0446 153.156 97.8606 153.156Z" fill="black" fill-opacity="0.5"/>
<defs>
<clipPath id="clip0_7016_259">
<rect width="23" height="23" fill="#f5f6f8" transform="translate(22 22)"/>
</clipPath>
</defs>
</svg>
