<svg width="164" height="40" viewBox="0 0 164 40" fill="none" xmlns="http://www.w3.org/2000/svg">
<g clip-path="url(#clip0_7004_154)">
<path fill-rule="evenodd" clip-rule="evenodd" d="M0 20C12.6994 20 19.9797 12.7123 19.9797 0C19.9797 12.7123 27.26 20 39.9594 20C27.26 20 19.9797 27.2877 19.9797 40C19.9797 27.2877 12.6994 20 0 20Z" fill="#272727"/>
<path d="M44.9543 27.5L50.4163 11.0975H55.3612L60.8232 27.5H57.1819L56.0805 24.125H49.697L48.5956 27.5H44.9543ZM50.5062 21.4475H55.2713L53.8777 17.2625L52.9562 14.27H52.8213L51.8998 17.2625L50.5062 21.4475Z" fill="#272727"/>
<path d="M66.9183 27.7025C65.7195 27.7025 64.6706 27.4475 63.7715 26.9375C62.8724 26.4125 62.1756 25.685 61.6811 24.755C61.1866 23.81 60.9394 22.715 60.9394 21.47C60.9394 20.21 61.1866 19.115 61.6811 18.185C62.1906 17.24 62.9024 16.5125 63.8165 16.0025C64.7305 15.4775 65.802 15.215 67.0307 15.215C68.0647 15.215 68.9862 15.41 69.7954 15.8C70.6046 16.19 71.2414 16.73 71.7059 17.42C72.1855 18.11 72.4477 18.9125 72.4926 19.8275H69.2559C69.151 19.1975 68.8888 18.725 68.4692 18.41C68.0497 18.08 67.5402 17.915 66.9408 17.915C66.0717 17.915 65.4123 18.2375 64.9628 18.8825C64.5133 19.5275 64.2885 20.39 64.2885 21.47C64.2885 22.655 64.5282 23.54 65.0078 24.125C65.5023 24.71 66.1391 25.0025 66.9183 25.0025C67.6226 25.0025 68.177 24.8225 68.5816 24.4625C69.0012 24.1025 69.241 23.63 69.3009 23.045H72.5151C72.4702 23.99 72.2004 24.815 71.7059 25.52C71.2264 26.21 70.5746 26.75 69.7504 27.14C68.9263 27.515 67.9822 27.7025 66.9183 27.7025Z" fill="#272727"/>
<path d="M74.094 27.5V15.44H77.2858L77.3982 17.6225H77.533C77.8327 16.8275 78.3197 16.2275 78.994 15.8225C79.6684 15.4175 80.4101 15.215 81.2193 15.215C82.0584 15.215 82.8227 15.4175 83.5118 15.8225C84.2011 16.2275 84.7106 16.925 85.0402 17.915H85.2201C85.5048 17.015 86.0068 16.34 86.726 15.89C87.4603 15.44 88.2844 15.215 89.1985 15.215C89.9777 15.215 90.6745 15.38 91.2889 15.71C91.9033 16.04 92.3903 16.5725 92.7499 17.3075C93.1245 18.0275 93.3118 18.995 93.3118 20.21V27.5H90.0077V20.93C90.0077 19.91 89.8354 19.1525 89.4907 18.6575C89.1611 18.1625 88.6216 17.915 87.8724 17.915C87.0782 17.915 86.4563 18.2075 86.0068 18.7925C85.5722 19.3625 85.3549 20.03 85.3549 20.795V27.5H82.0509V20.93C82.0509 19.91 81.8786 19.1525 81.534 18.6575C81.2043 18.1625 80.6649 17.915 79.9156 17.915C79.1064 17.915 78.4846 18.2075 78.05 18.7925C77.6155 19.3625 77.3982 20.03 77.3982 20.795V27.5H74.094Z" fill="#272727"/>
<path d="M100.855 27.7025C99.5963 27.7025 98.5174 27.4475 97.6183 26.9375C96.7342 26.4275 96.0524 25.715 95.5729 24.8C95.0934 23.87 94.8536 22.79 94.8536 21.56C94.8536 20.255 95.0934 19.13 95.5729 18.185C96.0674 17.24 96.7567 16.5125 97.6408 16.0025C98.5249 15.4775 99.5588 15.215 100.743 15.215C102.136 15.215 103.283 15.5225 104.182 16.1375C105.081 16.7375 105.725 17.57 106.115 18.635C106.504 19.685 106.632 20.8775 106.497 22.2125H98.1128C98.0978 23.1725 98.3451 23.915 98.8545 24.44C99.364 24.95 100.031 25.205 100.855 25.205C101.484 25.205 102.016 25.07 102.451 24.8C102.9 24.515 103.185 24.14 103.305 23.675H106.429C106.324 24.485 106.017 25.19 105.508 25.79C105.013 26.39 104.369 26.8625 103.575 27.2075C102.781 27.5375 101.874 27.7025 100.855 27.7025ZM100.743 17.7125C99.9934 17.7125 99.3865 17.93 98.922 18.365C98.4574 18.785 98.1952 19.3625 98.1353 20.0975H103.26C103.215 19.2875 102.953 18.6875 102.473 18.2975C102.009 17.9075 101.432 17.7125 100.743 17.7125Z" fill="#272727"/>
<path d="M120.139 27.7025C118.505 27.7025 117.067 27.3725 115.823 26.7125C114.594 26.0525 113.635 25.0925 112.946 23.8325C112.257 22.5725 111.912 21.0575 111.912 19.2875C111.912 17.5175 112.257 16.01 112.946 14.765C113.635 13.505 114.594 12.545 115.823 11.885C117.067 11.225 118.505 10.895 120.139 10.895C121.547 10.895 122.799 11.1425 123.892 11.6375C124.986 12.1175 125.87 12.8 126.545 13.685C127.219 14.555 127.631 15.575 127.781 16.745H124.23C124.035 15.905 123.57 15.2225 122.836 14.6975C122.117 14.1575 121.218 13.8875 120.139 13.8875C118.73 13.8875 117.606 14.3375 116.767 15.2375C115.943 16.1375 115.531 17.4875 115.531 19.2875C115.531 21.1025 115.943 22.46 116.767 23.36C117.606 24.26 118.73 24.71 120.139 24.71C121.188 24.71 122.087 24.4475 122.836 23.9225C123.585 23.3975 124.05 22.7 124.23 21.83H127.781C127.646 23 127.234 24.0275 126.545 24.9125C125.855 25.7975 124.956 26.4875 123.847 26.9825C122.754 27.4625 121.517 27.7025 120.139 27.7025Z" fill="#272727"/>
<path d="M134.957 27.7025C133.758 27.7025 132.702 27.455 131.788 26.96C130.874 26.465 130.162 25.7525 129.652 24.8225C129.158 23.8925 128.911 22.775 128.911 21.47C128.911 20.225 129.15 19.1375 129.63 18.2075C130.109 17.2625 130.799 16.5275 131.698 16.0025C132.597 15.4775 133.683 15.215 134.957 15.215C136.156 15.215 137.205 15.4625 138.104 15.9575C139.018 16.4525 139.722 17.1725 140.217 18.1175C140.726 19.0475 140.981 20.165 140.981 21.47C140.981 22.715 140.741 23.81 140.262 24.755C139.782 25.685 139.093 26.4125 138.194 26.9375C137.31 27.4475 136.231 27.7025 134.957 27.7025ZM134.935 25.025C135.744 25.025 136.396 24.7325 136.89 24.1475C137.385 23.5625 137.632 22.67 137.632 21.47C137.632 20.27 137.392 19.3775 136.913 18.7925C136.433 18.2075 135.781 17.915 134.957 17.915C134.133 17.915 133.474 18.2075 132.979 18.7925C132.485 19.3775 132.237 20.27 132.237 21.47C132.237 22.655 132.477 23.5475 132.957 24.1475C133.451 24.7325 134.11 25.025 134.935 25.025Z" fill="#272727"/>
<path d="M142.636 27.5V15.44H145.625L145.76 17.375H145.873C146.142 16.595 146.569 16.055 147.154 15.755C147.753 15.44 148.435 15.2825 149.199 15.2825H149.874V18.3875H149.132C148.023 18.3875 147.221 18.635 146.727 19.13C146.232 19.61 145.97 20.3 145.94 21.2V27.5H142.636Z" fill="#272727"/>
<path d="M151.165 31.2575V15.44H154.356L154.469 17.5325H154.649C154.933 16.8275 155.405 16.265 156.065 15.845C156.739 15.425 157.541 15.215 158.47 15.215C159.908 15.215 161.07 15.74 161.954 16.79C162.853 17.825 163.302 19.385 163.302 21.47C163.302 23.54 162.853 25.1 161.954 26.15C161.07 27.2 159.908 27.725 158.47 27.725C157.541 27.725 156.739 27.515 156.065 27.095C155.405 26.66 154.933 26.0975 154.649 25.4075H154.469V31.2575H151.165ZM157.234 25.0475C158.043 25.0475 158.687 24.7625 159.167 24.1925C159.661 23.6075 159.908 22.7 159.908 21.47C159.908 20.24 159.661 19.34 159.167 18.77C158.687 18.185 158.043 17.8925 157.234 17.8925C156.619 17.8925 156.11 18.035 155.705 18.32C155.3 18.605 155.001 18.98 154.806 19.445C154.611 19.895 154.514 20.375 154.514 20.885V22.055C154.514 22.565 154.611 23.0525 154.806 23.5175C155.001 23.9675 155.3 24.335 155.705 24.62C156.11 24.905 156.619 25.0475 157.234 25.0475Z" fill="#272727"/>
</g>
<defs>
<clipPath id="clip0_7004_154">
<rect width="164" height="40" fill="white"/>
</clipPath>
</defs>
</svg>
