<svg width="120" height="40" viewBox="0 0 120 40" fill="none" xmlns="http://www.w3.org/2000/svg">
<path fill-rule="evenodd" clip-rule="evenodd" d="M12.603 4.16626C9.94196 4.16626 7.48308 5.59575 6.15257 7.91626L1.3745 16.2496C0.043992 18.5701 0.0439896 21.4291 1.3745 23.7496L6.15257 32.0829C7.48308 34.4034 9.94196 35.8329 12.603 35.8329H22.1591C24.8201 35.8329 27.279 34.4034 28.6095 32.0829L33.3876 23.7496C34.7181 21.4291 34.7181 18.5701 33.3876 16.2496L28.6095 7.91626C27.279 5.59575 24.8201 4.16626 22.1591 4.16626H12.603ZM22.1591 9.16625H16.1865C15.2309 9.16625 14.6338 10.2078 15.1123 11.0408C16.5887 13.6106 18.0686 16.1785 19.5429 18.7496C19.9864 19.5231 19.9864 20.4761 19.5429 21.2496C18.0686 23.8208 16.5887 26.3886 15.1123 28.9584C14.6338 29.7913 15.2309 30.8329 16.1865 30.8329H22.1591C23.0461 30.8329 23.8658 30.3564 24.3093 29.5829L29.0873 21.2496C29.5308 20.4761 29.5308 19.5231 29.0873 18.7496L24.3093 10.4163C23.8658 9.64275 23.0461 9.16625 22.1591 9.16625Z" fill="#272727"/>
<path d="M55.4342 17.105H51.6803C51.2557 15.5975 50.1832 14.7875 48.6637 14.7875C46.3622 14.7875 45.0439 16.7225 45.0439 19.8725C45.0439 23.045 46.3399 24.9125 48.6637 24.9125C50.0938 24.9125 51.211 24.1475 51.6356 22.7075H55.4342C54.6521 26.0825 51.9484 27.86 48.7084 27.86C44.1724 27.86 41.3793 24.8225 41.3793 19.8725C41.3793 14.9225 44.1724 11.84 48.7531 11.84C52.0154 11.84 54.7862 13.6175 55.4342 17.105Z" fill="#272727"/>
<path d="M62.1883 27.86C58.5461 27.86 56.2893 25.43 56.2893 21.4475C56.2893 17.33 58.6131 15.0125 62.1883 15.0125C65.8305 15.0125 68.1097 17.4875 68.1097 21.4475C68.1097 25.5425 65.7635 27.86 62.1883 27.86ZM62.1883 25.07C63.7748 25.07 64.6016 23.81 64.6016 21.4475C64.6016 19.1075 63.7525 17.8025 62.1883 17.8025C60.6242 17.8025 59.7974 19.085 59.7974 21.4475C59.7974 23.7875 60.6465 25.07 62.1883 25.07Z" fill="#272727"/>
<path d="M69.4708 27.5V15.395H72.8895V17.0825C73.6492 15.6425 74.8112 15.0125 76.0402 15.0125C76.5318 15.0125 76.9787 15.1475 77.2245 15.395V18.2975C76.8223 18.2075 76.3977 18.1625 75.8614 18.1625C73.8057 18.1625 72.8895 19.3325 72.8895 21.245V27.5H69.4708Z" fill="#272727"/>
<path d="M89.256 23.5175C88.6303 26.3075 86.3959 27.86 83.4463 27.86C79.7145 27.86 77.413 25.43 77.413 21.4475C77.413 17.33 79.7369 15.0125 83.3123 15.0125C86.9098 15.0125 89.1666 17.42 89.1666 21.38V22.145H80.8988C81.0775 24.08 81.9713 25.115 83.4463 25.115C84.5636 25.115 85.3233 24.62 85.6808 23.5175H89.256ZM83.3123 17.7575C82.0384 17.7575 81.234 18.59 80.9658 20.165H85.6361C85.368 18.59 84.5636 17.7575 83.3123 17.7575Z" fill="#272727"/>
<path d="M97.9233 27.86C93.2086 27.86 90.3037 24.8 90.3037 19.8725C90.3037 14.9225 93.2086 11.84 97.9233 11.84C102.616 11.84 105.521 14.9225 105.521 19.8725C105.521 24.8 102.616 27.86 97.9233 27.86ZM97.9233 24.9125C100.404 24.9125 101.856 23.0225 101.856 19.8725C101.856 16.7225 100.404 14.7875 97.9233 14.7875C95.4207 14.7875 93.9683 16.7 93.9683 19.8725C93.9683 23.0225 95.4207 24.9125 97.9233 24.9125Z" fill="#272727"/>
<path d="M110.455 16.1375C110.455 19.4 119.393 16.6325 119.393 22.8875C119.393 26.0375 116.801 27.86 113.248 27.86C109.65 27.86 107.081 26.195 106.544 22.7075H110.321C110.611 24.215 111.661 25.0475 113.27 25.0475C114.879 25.0475 115.728 24.395 115.728 23.3375C115.728 19.9175 106.768 22.5275 106.768 16.475C106.768 13.91 108.89 11.84 112.622 11.84C115.773 11.84 118.499 13.3475 118.968 16.88H115.147C114.834 15.3725 113.963 14.6525 112.488 14.6525C111.237 14.6525 110.455 15.2375 110.455 16.1375Z" fill="#272727"/>
</svg>
