<svg width="24" height="24" viewBox="0 0 24 24" fill="none" xmlns="http://www.w3.org/2000/svg">
<rect width="24" height="24" rx="3" fill="#25222A"/>
<path d="M8.1776 5.72822C9.33486 5.0222 10.6911 4.63121 12.0534 4.62563C13.3216 4.60333 14.5974 4.91487 15.6995 5.53621C16.8305 6.16801 17.77 7.11866 18.4011 8.23624C19.2488 9.73052 19.5527 11.5109 19.2761 13.1983C18.1134 13.1984 16.9507 13.1983 15.788 13.1982C13.2593 13.198 10.7307 13.1978 8.20203 13.1989C8.48568 14.2029 9.14541 15.1069 10.0474 15.6592C10.7159 16.0746 11.5141 16.2865 12.3042 16.2506C13.0857 16.2196 13.8527 15.9467 14.4802 15.4881C14.8903 15.1937 15.2381 14.8201 15.5189 14.4047C16.4194 15.0466 17.321 15.6878 18.2197 16.3325C17.4407 17.3887 16.3712 18.2355 15.1548 18.7555C13.7624 19.3576 12.182 19.5284 10.6908 19.2357C9.059 18.9259 7.54372 18.0634 6.46046 16.8231C5.5525 15.792 4.94058 14.5096 4.72173 13.162C4.54892 12.1357 4.60983 11.0757 4.87896 10.0706C6.07254 10.0705 7.26615 10.0705 8.45979 10.0705C10.9025 10.0705 13.3452 10.0706 15.788 10.0706C15.35 9.17226 14.5801 8.42686 13.6413 8.04457C12.8205 7.70376 11.8792 7.65288 11.0258 7.90623C10.0927 8.17491 9.28351 8.79903 8.7541 9.59705C7.85251 8.95585 6.95092 8.3143 6.05146 7.66961C6.62478 6.89633 7.3486 6.23038 8.1776 5.72822Z" fill="white"/>
<path d="M8.7541 9.59705C7.85251 8.95585 6.95092 8.3143 6.05146 7.66961L8.16478 9.6398L4.87896 10.0706C6.07254 10.0705 7.26615 10.0705 8.45979 10.0705L8.7541 9.59705Z" fill="white"/>
<path d="M15.5189 14.4047C16.4194 15.0466 17.321 15.6878 18.2197 16.3325L15.788 13.1982L19.2761 13.1983C18.1134 13.1984 16.9507 13.1983 15.788 13.1982L15.5189 14.4047Z" fill="white"/>
</svg>
