<svg width="119" height="25" viewBox="0 0 119 25" fill="none" xmlns="http://www.w3.org/2000/svg">
<path d="M6.02172 1.87059C7.98308 0.674011 10.2817 0.0113452 12.5906 0.00189542C14.7398 -0.0359037 16.9022 0.492103 18.7699 1.54516C20.6869 2.61594 22.2791 4.22713 23.3486 6.12121C24.7854 8.65375 25.3004 11.6712 24.8316 14.5309C22.8611 14.5311 20.8905 14.531 18.92 14.5309C14.6344 14.5306 10.3487 14.5301 6.06314 14.5321C6.54387 16.2337 7.66199 17.7657 9.19062 18.7018C10.3237 19.4058 11.6765 19.7649 13.0155 19.7041C14.3401 19.6515 15.64 19.1891 16.7035 18.4118C17.3985 17.9128 17.9879 17.2796 18.4638 16.5756C19.9901 17.6635 21.5181 18.7502 23.0413 19.8429C21.721 21.633 19.9084 23.0682 17.8469 23.9494C15.487 24.97 12.8084 25.2594 10.2811 24.7633C7.51554 24.2382 4.94742 22.7764 3.1115 20.6745C1.57267 18.9268 0.535574 16.7534 0.164669 14.4695C-0.128213 12.7302 -0.024985 10.9335 0.431144 9.23019C2.45404 9.23 4.477 9.22993 6.5 9.22993C10.6399 9.22992 14.7799 9.23019 18.92 9.23019C18.1776 7.7076 16.8728 6.44428 15.2817 5.79638C13.8905 5.21876 12.2953 5.13253 10.8489 5.56191C9.26744 6.01727 7.89605 7.07505 6.9988 8.42755C5.47077 7.34083 3.94274 6.25351 2.41831 5.16088C3.38998 3.85032 4.61673 2.72166 6.02172 1.87059Z" fill="white"/>
<path d="M6.9988 8.42755C5.47077 7.34083 3.94274 6.25351 2.41831 5.16088L6 8.5L0.431144 9.23019C2.45404 9.23 4.477 9.22993 6.5 9.22993L6.9988 8.42755Z" fill="white"/>
<path d="M18.4638 16.5756C19.9901 17.6635 21.5181 18.7502 23.0413 19.8429L18.92 14.5309L24.8316 14.5309C22.8611 14.5311 20.8905 14.531 18.92 14.5309L18.4638 16.5756Z" fill="white"/>
<path d="M116.856 19.878C116.426 19.878 116.062 19.7287 115.764 19.43C115.474 19.1313 115.33 18.7673 115.33 18.338C115.33 17.918 115.474 17.5587 115.764 17.26C116.062 16.9613 116.426 16.812 116.856 16.812C117.285 16.812 117.649 16.9613 117.948 17.26C118.246 17.5587 118.396 17.918 118.396 18.338C118.396 18.7673 118.246 19.1313 117.948 19.43C117.649 19.7287 117.285 19.878 116.856 19.878Z" fill="white"/>
<path d="M111.024 5.514H113.936V19.514H111.01L110.898 17.484C110.488 18.2027 109.932 18.7813 109.232 19.22C108.532 19.6587 107.706 19.878 106.754 19.878C105.728 19.878 104.762 19.6867 103.856 19.304C102.951 18.912 102.153 18.3707 101.462 17.68C100.781 16.9893 100.249 16.196 99.8662 15.3C99.4835 14.3947 99.2922 13.424 99.2922 12.388C99.2922 11.3893 99.4788 10.4513 99.8522 9.574C100.226 8.68733 100.744 7.91266 101.406 7.25C102.069 6.58733 102.834 6.06933 103.702 5.696C104.58 5.31333 105.518 5.122 106.516 5.122C107.534 5.122 108.43 5.35533 109.204 5.822C109.988 6.27933 110.637 6.86733 111.15 7.586L111.024 5.514ZM106.684 17.064C107.506 17.064 108.224 16.8633 108.84 16.462C109.456 16.0513 109.932 15.5007 110.268 14.81C110.614 14.1193 110.786 13.354 110.786 12.514C110.786 11.6647 110.614 10.8947 110.268 10.204C109.923 9.51333 109.442 8.96733 108.826 8.566C108.22 8.15533 107.506 7.95 106.684 7.95C105.872 7.95 105.13 8.15533 104.458 8.566C103.786 8.97666 103.254 9.52733 102.862 10.218C102.47 10.9087 102.274 11.674 102.274 12.514C102.274 13.3633 102.475 14.1333 102.876 14.824C103.287 15.5053 103.824 16.0513 104.486 16.462C105.158 16.8633 105.891 17.064 106.684 17.064Z" fill="white"/>
<path d="M98.4229 8.426L90.6389 16.602H98.4229V19.514H86.4669V16.602L94.2509 8.426H86.4669V5.514H98.4229V8.426Z" fill="white"/>
<path d="M77.2301 19.514V5.514H80.1421V6.998C80.6275 6.41933 81.2248 5.962 81.9341 5.626C82.6435 5.29 83.4088 5.122 84.2301 5.122C84.7528 5.122 85.2708 5.192 85.7841 5.332L84.6221 8.272C84.2581 8.132 83.8941 8.062 83.5301 8.062C82.9141 8.062 82.3495 8.216 81.8361 8.524C81.3228 8.82266 80.9121 9.22866 80.6041 9.742C80.2961 10.2553 80.1421 10.8247 80.1421 11.45V19.514H77.2301Z" fill="white"/>
<path d="M68.8356 19.878C67.5476 19.878 66.3716 19.5467 65.3076 18.884C64.2529 18.2213 63.4083 17.3347 62.7736 16.224C62.1483 15.104 61.8356 13.8673 61.8356 12.514C61.8356 11.4873 62.0176 10.5307 62.3816 9.644C62.7456 8.748 63.2449 7.964 63.8796 7.292C64.5236 6.61066 65.2703 6.07866 66.1196 5.696C66.9689 5.31333 67.8743 5.122 68.8356 5.122C69.9089 5.122 70.8936 5.346 71.7896 5.794C72.6856 6.23266 73.4509 6.844 74.0856 7.628C74.7203 8.40266 75.1869 9.29866 75.4856 10.316C75.7843 11.324 75.8729 12.3973 75.7516 13.536H64.9576C65.0789 14.18 65.3123 14.7633 65.6576 15.286C66.0123 15.7993 66.4603 16.2053 67.0016 16.504C67.5523 16.8027 68.1636 16.9567 68.8356 16.966C69.5449 16.966 70.1889 16.7887 70.7676 16.434C71.3556 16.0793 71.8363 15.5893 72.2096 14.964L75.1636 15.65C74.6036 16.8913 73.7589 17.9087 72.6296 18.702C71.5003 19.486 70.2356 19.878 68.8356 19.878ZM64.8596 11.31H72.8116C72.7183 10.638 72.4803 10.0313 72.0976 9.49C71.7243 8.93933 71.2529 8.50533 70.6836 8.188C70.1236 7.86133 69.5076 7.698 68.8356 7.698C68.1729 7.698 67.5569 7.85666 66.9876 8.174C66.4276 8.49133 65.9609 8.92533 65.5876 9.476C65.2236 10.0173 64.9809 10.6287 64.8596 11.31Z" fill="white"/>
<path d="M60.9945 10.736V19.514H58.0825V11.45C58.0825 10.8247 57.9285 10.2553 57.6205 9.742C57.3218 9.22866 56.9158 8.82266 56.4025 8.524C55.8985 8.216 55.3292 8.062 54.6945 8.062C54.0785 8.062 53.5139 8.216 53.0005 8.524C52.4872 8.82266 52.0765 9.22866 51.7685 9.742C51.4605 10.2553 51.3065 10.8247 51.3065 11.45V19.514H48.3945V5.514H51.3065V6.998C51.7919 6.41933 52.3892 5.962 53.0985 5.626C53.8078 5.29 54.5732 5.122 55.3945 5.122C56.4305 5.122 57.3732 5.374 58.2225 5.878C59.0718 6.382 59.7438 7.05866 60.2385 7.908C60.7425 8.75733 60.9945 9.7 60.9945 10.736Z" fill="white"/>
<path d="M40 19.878C38.712 19.878 37.536 19.5467 36.472 18.884C35.4173 18.2213 34.5727 17.3347 33.938 16.224C33.3127 15.104 33 13.8673 33 12.514C33 11.4873 33.182 10.5307 33.546 9.644C33.91 8.748 34.4093 7.964 35.044 7.292C35.688 6.61066 36.4347 6.07866 37.284 5.696C38.1333 5.31333 39.0387 5.122 40 5.122C41.0733 5.122 42.058 5.346 42.954 5.794C43.85 6.23266 44.6153 6.844 45.25 7.628C45.8847 8.40266 46.3513 9.29866 46.65 10.316C46.9487 11.324 47.0373 12.3973 46.916 13.536H36.122C36.2433 14.18 36.4767 14.7633 36.822 15.286C37.1767 15.7993 37.6247 16.2053 38.166 16.504C38.7167 16.8027 39.328 16.9567 40 16.966C40.7093 16.966 41.3533 16.7887 41.932 16.434C42.52 16.0793 43.0007 15.5893 43.374 14.964L46.328 15.65C45.768 16.8913 44.9233 17.9087 43.794 18.702C42.6647 19.486 41.4 19.878 40 19.878ZM36.024 11.31H43.976C43.8827 10.638 43.6447 10.0313 43.262 9.49C42.8887 8.93933 42.4173 8.50533 41.848 8.188C41.288 7.86133 40.672 7.698 40 7.698C39.3373 7.698 38.7213 7.85666 38.152 8.174C37.592 8.49133 37.1253 8.92533 36.752 9.476C36.388 10.0173 36.1453 10.6287 36.024 11.31Z" fill="white"/>
</svg>
