<svg width="126" height="40" viewBox="0 0 126 40" fill="none" xmlns="http://www.w3.org/2000/svg">
<path fill-rule="evenodd" clip-rule="evenodd" d="M16.6887 36.6667C25.9057 36.6667 33.3775 29.2048 33.3775 20C33.3775 10.7953 25.9057 3.33334 16.6887 3.33334C7.4718 3.33334 0 10.7953 0 20C0 29.2048 7.4718 36.6667 16.6887 36.6667ZM20.8609 23.3333C25.0086 23.3333 28.3709 19.9755 28.3709 15.8333C28.3709 11.6912 25.0086 8.33334 20.8609 8.33334C16.7133 8.33334 13.351 11.6912 13.351 15.8333C13.351 19.9755 16.7133 23.3333 20.8609 23.3333Z" fill="#272727"/>
<path d="M52.6038 24.5299V27.4999H41.7219V11.3449H52.446V14.3149H45.1464V17.7124H51.7702V20.6599H45.1464V24.5299H52.6038Z" fill="#272727"/>
<path d="M57.7087 12.6949C57.7087 13.7524 56.8525 14.5399 55.6134 14.5399C54.3968 14.5399 53.5406 13.7524 53.5406 12.6949C53.5406 11.5924 54.3968 10.8049 55.6134 10.8049C56.8525 10.8049 57.7087 11.5924 57.7087 12.6949ZM57.213 27.4999H54.0814V15.4849H57.213V27.4999Z" fill="#272727"/>
<path d="M64.2129 32.0674C60.9686 32.0674 58.8058 30.3124 58.6706 27.5449H61.6896C61.8248 28.9174 62.7034 29.6374 64.1904 29.6374C65.9252 29.6374 66.8264 28.7149 66.8264 26.9824V25.2274C66.173 26.3749 64.9339 27.0499 63.4694 27.0499C60.518 27.0499 58.3101 24.5524 58.3101 21.1549C58.3101 17.6674 60.3829 15.2599 63.3568 15.2599C64.9789 15.2599 66.1955 15.8899 67.0742 17.1274V15.4849H69.9355V26.9374C69.9355 30.1324 67.7726 32.0674 64.2129 32.0674ZM61.4418 21.1549C61.4418 23.1124 62.4556 24.3499 64.0778 24.3499C65.7224 24.3499 66.8039 23.0674 66.8039 21.1774C66.8039 19.2199 65.7224 17.9599 64.0778 17.9599C62.4781 17.9599 61.4418 19.1974 61.4418 21.1549Z" fill="#272727"/>
<path d="M74.9922 20.9524V27.4999H71.8605V11.3449H74.9922V17.0599C75.8258 15.9574 76.8622 15.2599 78.4392 15.2599C80.8499 15.2599 82.5171 16.8349 82.5171 19.7374V27.4999H79.408V20.7949C79.408 19.0174 78.7096 18.0274 77.2902 18.0274C76.0511 18.0274 74.9922 19.0174 74.9922 20.9524Z" fill="#272727"/>
<path d="M91.7063 24.4624V27.1849C90.9403 27.5674 90.2193 27.7249 89.2956 27.7249C86.8173 27.7249 85.2628 26.3074 85.2628 23.6074V18.1624H82.8296V15.4849H85.2628V11.9299H88.3719V15.4849H91.819V18.1624H88.3719V22.8874C88.3719 24.2824 89.0027 24.8449 90.1292 24.8449C90.715 24.8449 91.2557 24.7099 91.7063 24.4624Z" fill="#272727"/>
<path d="M104.839 21.4924C104.839 25.0024 102.743 27.7249 99.4991 27.7249C97.9446 27.7249 96.6378 27.0274 95.7141 25.7674V27.4999H92.8303V11.3449H95.9619V17.0374C96.8406 15.8674 98.0572 15.2599 99.4991 15.2599C102.743 15.2599 104.839 17.9374 104.839 21.4924ZM101.617 21.4924C101.617 19.1974 100.333 18.0274 98.8007 18.0274C97.2912 18.0274 95.9845 19.1749 95.9845 21.4474C95.9845 23.7199 97.2461 24.9349 98.8007 24.9349C100.333 24.9349 101.617 23.7424 101.617 21.4924Z" fill="#272727"/>
<path d="M113.109 27.4999V26.0149C112.32 27.1399 111.126 27.7249 109.481 27.7249C106.981 27.7249 105.313 26.2624 105.313 24.0124C105.313 21.6724 107.206 20.4124 110.721 20.4124C111.397 20.4124 111.982 20.4574 112.726 20.5474V19.8274C112.726 18.4774 111.96 17.6899 110.653 17.6899C109.301 17.6899 108.49 18.4774 108.378 19.8274H105.561C105.742 17.0599 107.747 15.2599 110.653 15.2599C113.807 15.2599 115.655 16.9924 115.655 19.9399V27.4999H113.109ZM108.265 23.9224C108.265 24.9349 108.986 25.5649 110.157 25.5649C111.757 25.5649 112.726 24.6874 112.726 23.2924V22.4374C111.982 22.3249 111.464 22.2799 110.923 22.2799C109.144 22.2799 108.265 22.8424 108.265 23.9224Z" fill="#272727"/>
<path d="M120.606 27.4999H117.452V11.3449H120.606V27.4999Z" fill="#272727"/>
<path d="M125.667 27.4999H122.513V11.3449H125.667V27.4999Z" fill="#272727"/>
</svg>
