<svg width="1442" height="308" viewBox="0 0 1442 308" fill="none" xmlns="http://www.w3.org/2000/svg">
<path d="M153.143 0.523438C179.196 0.060458 205.407 6.52843 228.043 19.4238L228.045 19.4248C251.277 32.5373 270.578 52.2702 283.543 75.4697H283.544C300.893 106.368 307.155 143.164 301.589 178.074C277.765 178.076 253.94 178.076 230.116 178.074L220.539 178.073C171.607 178.07 122.675 178.066 73.7432 178.089L73.085 178.09L73.2617 178.724C79.1403 199.747 92.8127 218.681 111.516 230.255V230.256C125.382 238.961 141.936 243.401 158.325 242.648L158.324 242.647C174.535 241.997 190.439 236.28 203.451 226.672L203.452 226.673C211.959 220.501 219.166 212.675 224.983 203.98L225.036 203.902L225.057 203.811L230.373 179.729L279.616 243.86C263.629 265.648 241.744 283.118 216.866 293.862H216.864C188.256 306.364 155.781 309.909 125.143 303.832H125.14C91.6127 297.401 60.4781 279.493 38.2227 253.747L38.2207 253.746L37.3506 252.738C19.1742 231.506 6.92195 205.277 2.49609 177.74V177.737L2.17676 175.738C-0.95535 155.171 0.356844 134.002 5.64355 113.883L73.041 104.955L74.084 104.816L73.3184 104.095L30.0791 63.3643C41.818 47.4608 56.5955 33.7621 73.501 23.415L73.502 23.4141C97.2802 8.75637 125.148 0.639255 153.136 0.523438H153.143ZM186.055 70.7705C169.295 63.7405 150.118 62.5981 132.638 67.6289L131.807 67.873C112.451 73.5056 95.6774 86.5822 84.7051 103.294L84.7012 103.301L84.6973 103.307L78.6309 113.167L78.1621 113.93H79.0566C98.499 113.93 117.942 113.93 137.385 113.931H155.194C180.168 113.931 205.142 113.933 230.116 113.933H230.912L230.566 113.215C221.486 94.3984 205.527 78.7821 186.056 70.7705H186.055Z" stroke="url(#paint0_linear_7043_239)"/>
<mask id="path-2-outside-1_7043_239" maskUnits="userSpaceOnUse" x="400.871" y="61.9424" width="1041" height="184" fill="black">
<rect fill="white" x="400.871" y="61.9424" width="1041" height="184"/>
<path d="M1421.78 206.61C1427 206.61 1431.42 208.446 1435.06 212.116C1438.69 215.787 1440.51 220.203 1440.51 225.364C1440.51 230.64 1438.69 235.114 1435.06 238.784C1431.42 242.454 1427 244.289 1421.78 244.289C1416.55 244.289 1412.13 242.454 1408.49 238.784C1404.98 235.114 1403.21 230.64 1403.21 225.364C1403.21 220.203 1404.97 215.787 1408.49 212.116C1412.13 208.446 1416.55 206.61 1421.78 206.61ZM487.009 62.9424C500.063 62.9424 512.04 65.6956 522.937 71.2012C533.835 76.5921 543.144 84.1045 550.863 93.7393C558.582 103.259 564.258 114.27 567.891 126.772C571.523 139.16 572.602 152.351 571.126 166.345H439.843C441.318 174.259 444.156 181.427 448.356 187.851C452.67 194.159 458.119 199.149 464.703 202.819C471.4 206.49 478.836 208.382 487.009 208.497C495.636 208.497 503.47 206.318 510.508 201.959C517.659 197.6 523.505 191.578 528.046 183.894L563.974 192.324C557.162 207.579 546.89 220.082 533.154 229.831C519.419 239.466 504.036 244.283 487.009 244.283C471.343 244.283 457.04 240.211 444.099 232.067C431.272 223.924 420.998 213.027 413.279 199.378C405.674 185.614 401.871 170.416 401.871 153.785C401.871 141.168 404.084 129.411 408.512 118.515C412.939 107.503 419.012 97.8687 426.731 89.6104C434.564 81.2373 443.645 74.6988 453.975 69.9961C464.305 65.2935 475.317 62.9424 487.009 62.9424ZM837.724 62.9424C850.779 62.9424 862.756 65.6956 873.653 71.2012C884.551 76.592 893.859 84.1046 901.578 93.7393C909.297 103.259 914.974 114.27 918.606 126.772C922.239 139.16 923.317 152.351 921.842 166.345H790.558C792.034 174.259 794.872 181.427 799.072 187.851C803.386 194.159 808.835 199.149 815.419 202.819C822.116 206.49 829.551 208.382 837.724 208.497C846.352 208.497 854.185 206.317 861.223 201.959C868.374 197.6 874.221 191.578 878.762 183.894L914.689 192.324C907.878 207.579 897.605 220.082 883.87 229.831C870.134 239.466 854.752 244.283 837.724 244.283C822.059 244.283 807.756 240.211 794.815 232.067C781.988 223.924 771.714 213.027 763.995 199.378C756.389 185.614 752.587 170.416 752.587 153.785C752.587 141.168 754.8 129.411 759.227 118.515C763.655 107.503 769.728 97.8687 777.447 89.6104C785.28 81.2373 794.361 74.6988 804.691 69.9961C815.021 65.2935 826.032 62.9424 837.724 62.9424ZM1296.02 62.9424C1308.39 62.9424 1319.29 65.8101 1328.71 71.5449C1338.25 77.1652 1346.14 84.3917 1352.38 93.2236L1350.85 67.7598H1386.26V239.81H1350.68L1349.31 214.862C1344.32 223.694 1337.57 230.805 1329.05 236.196C1320.54 241.587 1310.49 244.283 1298.91 244.283C1286.43 244.283 1274.68 241.932 1263.67 237.229C1252.65 232.412 1242.95 225.759 1234.55 217.271C1226.26 208.784 1219.79 199.034 1215.14 188.022C1210.48 176.897 1208.16 164.968 1208.16 152.236C1208.16 139.963 1210.43 128.436 1214.97 117.654C1219.51 106.758 1225.81 97.2374 1233.87 89.0938C1241.93 80.9501 1251.24 74.5841 1261.79 69.9961C1272.46 65.2935 1283.87 62.9424 1296.02 62.9424ZM674.247 62.9424C686.847 62.9425 698.312 66.0397 708.642 72.2334C718.972 78.4272 727.146 86.7431 733.162 97.1807C739.292 107.618 742.357 119.203 742.357 131.935V239.81H706.939V140.709C706.939 133.024 705.066 126.027 701.32 119.719C697.688 113.41 692.75 108.421 686.507 104.751C680.377 100.966 673.451 99.0732 665.732 99.0732C658.24 99.0733 651.372 100.966 645.129 104.751C638.886 108.421 633.891 113.411 630.145 119.719C626.399 126.027 624.526 133.024 624.526 140.709V239.81H589.108V67.7598H624.526V85.9971C630.429 78.8858 637.694 73.2649 646.321 69.1357C654.948 65.0066 664.257 62.9424 674.247 62.9424ZM1024.96 62.9424C1031.32 62.9424 1037.62 63.8029 1043.86 65.5234L1029.73 101.653C1025.3 99.933 1020.88 99.0732 1016.45 99.0732C1008.96 99.0733 1002.09 100.966 995.845 104.751C989.601 108.421 984.606 113.41 980.86 119.719C977.114 126.027 975.241 133.024 975.241 140.709V239.81H939.824V67.7598H975.241V85.9971C981.144 78.8857 988.41 73.2649 997.037 69.1357C1005.66 65.0067 1014.97 62.9424 1024.96 62.9424ZM1197.58 103.533L1102.91 204.011H1197.58V239.797H1052.17V204.011L1146.84 103.533H1052.17V67.7471H1197.58V103.533ZM1298.06 97.6963C1288.19 97.6963 1279.16 100.22 1270.99 105.267C1262.81 110.313 1256.34 117.081 1251.58 125.568C1246.81 134.056 1244.42 143.462 1244.42 153.785C1244.42 164.223 1246.86 173.685 1251.75 182.173C1256.74 190.546 1263.27 197.256 1271.33 202.303C1279.5 207.235 1288.41 209.701 1298.06 209.701C1308.05 209.701 1316.79 207.235 1324.28 202.303C1331.78 197.256 1337.57 190.489 1341.65 182.001C1345.85 173.513 1347.95 164.108 1347.95 153.785C1347.95 143.347 1345.85 133.884 1341.65 125.396C1337.45 116.909 1331.61 110.199 1324.11 105.267C1316.74 100.22 1308.05 97.6963 1298.06 97.6963ZM487.009 94.5996C478.949 94.5997 471.457 96.5496 464.533 100.449C457.722 104.349 452.045 109.683 447.505 116.45C443.078 123.103 440.126 130.615 438.65 138.988H535.368C534.233 130.73 531.338 123.275 526.683 116.622C522.143 109.855 516.41 104.521 509.485 100.621C502.674 96.6067 495.182 94.5996 487.009 94.5996ZM837.724 94.5996C829.665 94.5997 822.172 96.5495 815.248 100.449C808.437 104.349 802.761 109.683 798.221 116.45C793.794 123.103 790.842 130.615 789.366 138.988H886.083C884.948 130.73 882.053 123.275 877.399 116.622C872.859 109.855 867.126 104.521 860.201 100.621C853.39 96.6067 845.898 94.5996 837.724 94.5996Z"/>
</mask>
<path d="M1421.78 206.61L1421.78 205.61H1421.78V206.61ZM1435.06 212.116L1435.77 211.413L1435.77 211.413L1435.06 212.116ZM1440.51 225.364L1441.51 225.364V225.364H1440.51ZM1435.06 238.784L1435.77 239.488L1435.77 239.488L1435.06 238.784ZM1421.78 244.289L1421.78 245.289L1421.78 245.289L1421.78 244.289ZM1408.49 238.784L1407.77 239.476L1407.78 239.482L1407.78 239.488L1408.49 238.784ZM1403.21 225.364L1402.21 225.364L1402.21 225.364L1403.21 225.364ZM1408.49 212.116L1407.78 211.413L1407.78 211.418L1407.77 211.424L1408.49 212.116ZM487.009 62.9424L487.009 61.9424L487.009 61.9424L487.009 62.9424ZM522.937 71.2012L522.486 72.0938L522.494 72.0975L522.937 71.2012ZM550.863 93.7393L550.083 94.3645L550.086 94.3691L550.863 93.7393ZM567.891 126.772L566.93 127.051L566.931 127.054L567.891 126.772ZM571.126 166.345V167.345H572.026L572.12 166.45L571.126 166.345ZM439.843 166.345V165.345H438.639L438.86 166.528L439.843 166.345ZM448.356 187.851L447.519 188.398L447.525 188.407L447.531 188.415L448.356 187.851ZM464.703 202.819L464.216 203.693L464.222 203.696L464.703 202.819ZM487.009 208.497L486.995 209.497H487.009V208.497ZM510.508 201.959L509.987 201.105L509.981 201.109L510.508 201.959ZM528.046 183.894L528.274 182.92L527.559 182.752L527.185 183.385L528.046 183.894ZM563.974 192.324L564.887 192.732L565.38 191.627L564.202 191.351L563.974 192.324ZM533.154 229.831L533.728 230.65L533.733 230.647L533.154 229.831ZM487.009 244.283L487.009 245.283H487.009V244.283ZM444.099 232.067L443.564 232.912L443.567 232.914L444.099 232.067ZM413.279 199.378L412.404 199.862L412.409 199.87L413.279 199.378ZM401.871 153.785L400.871 153.785L400.871 153.785L401.871 153.785ZM408.512 118.515L409.438 118.891L409.439 118.888L408.512 118.515ZM426.731 89.6104L426.001 88.9272L426.001 88.9275L426.731 89.6104ZM453.975 69.9961L453.561 69.086L453.561 69.086L453.975 69.9961ZM837.724 62.9424L837.724 61.9424L837.724 61.9424L837.724 62.9424ZM873.653 71.2012L873.202 72.0938L873.21 72.0975L873.653 71.2012ZM901.578 93.7393L900.798 94.3645L900.801 94.3691L901.578 93.7393ZM918.606 126.772L917.646 127.051L917.647 127.054L918.606 126.772ZM921.842 166.345V167.345H922.742L922.836 166.45L921.842 166.345ZM790.558 166.345V165.345H789.355L789.575 166.528L790.558 166.345ZM799.072 187.851L798.235 188.398L798.241 188.407L798.247 188.415L799.072 187.851ZM815.419 202.819L814.932 203.693L814.938 203.696L815.419 202.819ZM837.724 208.497L837.71 209.497H837.724V208.497ZM861.223 201.959L860.702 201.105L860.696 201.109L861.223 201.959ZM878.762 183.894L878.99 182.92L878.275 182.752L877.901 183.385L878.762 183.894ZM914.689 192.324L915.602 192.732L916.096 191.627L914.918 191.351L914.689 192.324ZM883.87 229.831L884.444 230.65L884.449 230.647L883.87 229.831ZM837.724 244.283L837.724 245.283H837.724V244.283ZM794.815 232.067L794.279 232.912L794.283 232.914L794.815 232.067ZM763.995 199.378L763.12 199.862L763.125 199.87L763.995 199.378ZM752.587 153.785L751.587 153.785L751.587 153.785L752.587 153.785ZM759.227 118.515L760.154 118.891L760.155 118.888L759.227 118.515ZM777.447 89.6104L776.717 88.9272L776.717 88.9275L777.447 89.6104ZM804.691 69.9961L804.277 69.086L804.277 69.086L804.691 69.9961ZM1296.02 62.9424L1296.02 61.9424H1296.02V62.9424ZM1328.71 71.5449L1328.19 72.3991L1328.2 72.4028L1328.2 72.4064L1328.71 71.5449ZM1352.38 93.2236L1351.56 93.8009L1353.59 96.6661L1353.38 93.1636L1352.38 93.2236ZM1350.85 67.7598V66.7598H1349.79L1349.85 67.8198L1350.85 67.7598ZM1386.26 67.7598H1387.26V66.7598H1386.26V67.7598ZM1386.26 239.81V240.81H1387.26V239.81H1386.26ZM1350.68 239.81L1349.68 239.864L1349.73 240.81H1350.68V239.81ZM1349.31 214.862L1350.31 214.808L1350.13 211.395L1348.44 214.37L1349.31 214.862ZM1329.05 236.196L1329.59 237.041L1329.59 237.041L1329.05 236.196ZM1298.91 244.283L1298.91 245.283L1298.91 245.283L1298.91 244.283ZM1263.67 237.229L1263.27 238.146L1263.27 238.149L1263.67 237.229ZM1234.55 217.271L1233.83 217.97L1233.84 217.975L1234.55 217.271ZM1215.14 188.022L1214.21 188.408L1214.22 188.412L1215.14 188.022ZM1208.16 152.236L1207.16 152.236L1208.16 152.236ZM1214.97 117.654L1215.89 118.042L1215.89 118.039L1214.97 117.654ZM1233.87 89.0938L1233.16 88.3903L1233.16 88.3903L1233.87 89.0938ZM1261.79 69.9961L1262.19 70.9132L1262.2 70.9112L1261.79 69.9961ZM674.247 62.9424L674.247 61.9424H674.247V62.9424ZM708.642 72.2334L709.157 71.3758L709.157 71.3757L708.642 72.2334ZM733.162 97.1807L732.296 97.6801L732.3 97.6871L733.162 97.1807ZM742.357 239.81V240.81H743.357V239.81H742.357ZM706.939 239.81H705.939V240.81H706.939V239.81ZM701.32 119.719L700.454 120.218L700.46 120.229L701.32 119.719ZM686.507 104.751L685.981 105.602L685.991 105.608L686 105.613L686.507 104.751ZM665.732 99.0732L665.732 98.0732L665.732 98.0732L665.732 99.0732ZM645.129 104.751L645.636 105.613L645.647 105.606L645.129 104.751ZM630.145 119.719L629.286 119.208L629.286 119.208L630.145 119.719ZM624.526 239.81V240.81H625.526V239.81H624.526ZM589.108 239.81H588.108V240.81H589.108V239.81ZM589.108 67.7598V66.7598H588.108V67.7598H589.108ZM624.526 67.7598H625.526V66.7598H624.526V67.7598ZM624.526 85.9971H623.526V88.7675L625.296 86.6358L624.526 85.9971ZM646.321 69.1357L645.889 68.2337L645.889 68.2337L646.321 69.1357ZM1024.96 62.9424L1024.96 61.9424L1024.96 61.9424L1024.96 62.9424ZM1043.86 65.5234L1044.79 65.8877L1045.2 64.8542L1044.13 64.5594L1043.86 65.5234ZM1029.73 101.653L1029.37 102.585L1030.3 102.947L1030.66 102.018L1029.73 101.653ZM1016.45 99.0732L1016.45 98.0732L1016.45 98.0732L1016.45 99.0732ZM995.845 104.751L996.351 105.613L996.363 105.606L995.845 104.751ZM980.86 119.719L980 119.208L980 119.208L980.86 119.719ZM975.241 239.81V240.81H976.241V239.81H975.241ZM939.824 239.81H938.824V240.81H939.824V239.81ZM939.824 67.7598V66.7598H938.824V67.7598H939.824ZM975.241 67.7598H976.241V66.7598H975.241V67.7598ZM975.241 85.9971H974.241V88.7675L976.011 86.6358L975.241 85.9971ZM997.037 69.1357L996.605 68.2337L996.605 68.2337L997.037 69.1357ZM1197.58 103.533L1198.31 104.219L1198.58 103.93V103.533H1197.58ZM1102.91 204.011L1102.18 203.325L1100.59 205.011H1102.91V204.011ZM1197.58 204.011H1198.58V203.011H1197.58V204.011ZM1197.58 239.797V240.797H1198.58V239.797H1197.58ZM1052.17 239.797H1051.17V240.797H1052.17V239.797ZM1052.17 204.011L1051.44 203.325L1051.17 203.614V204.011H1052.17ZM1146.84 103.533L1147.57 104.219L1149.16 102.533H1146.84V103.533ZM1052.17 103.533H1051.17V104.533H1052.17V103.533ZM1052.17 67.7471V66.7471H1051.17V67.7471H1052.17ZM1197.58 67.7471H1198.58V66.7471H1197.58V67.7471ZM1298.06 97.6963L1298.06 96.6963L1298.06 96.6963L1298.06 97.6963ZM1270.99 105.267L1270.46 104.416L1270.46 104.416L1270.99 105.267ZM1251.58 125.568L1250.7 125.079L1250.7 125.079L1251.58 125.568ZM1244.42 153.785L1243.42 153.785L1243.42 153.785L1244.42 153.785ZM1251.75 182.173L1250.88 182.671L1250.88 182.678L1250.89 182.685L1251.75 182.173ZM1271.33 202.303L1270.8 203.15L1270.8 203.155L1270.81 203.159L1271.33 202.303ZM1298.06 209.701L1298.06 210.701H1298.06V209.701ZM1324.28 202.303L1324.83 203.138L1324.84 203.132L1324.28 202.303ZM1341.65 182.001L1340.76 181.557L1340.75 181.567L1341.65 182.001ZM1347.95 153.785L1348.95 153.785V153.785H1347.95ZM1341.65 125.396L1342.55 124.953L1342.55 124.953L1341.65 125.396ZM1324.11 105.267L1323.55 106.092L1323.56 106.097L1323.56 106.102L1324.11 105.267ZM487.009 94.5996L487.009 93.5996L487.009 93.5996L487.009 94.5996ZM464.533 100.449L464.042 99.5779L464.036 99.5814L464.533 100.449ZM447.505 116.45L446.674 115.893L446.672 115.896L447.505 116.45ZM438.65 138.988L437.665 138.815L437.459 139.988H438.65V138.988ZM535.368 138.988V139.988H536.515L536.359 138.852L535.368 138.988ZM526.683 116.622L525.853 117.179L525.859 117.187L525.864 117.195L526.683 116.622ZM509.485 100.621L508.977 101.483L508.986 101.488L508.995 101.492L509.485 100.621ZM837.724 94.5996L837.724 93.5996L837.724 93.5996L837.724 94.5996ZM815.248 100.449L814.757 99.5779L814.751 99.5814L815.248 100.449ZM798.221 116.45L797.39 115.893L797.388 115.896L798.221 116.45ZM789.366 138.988L788.381 138.815L788.174 139.988H789.366V138.988ZM886.083 138.988V139.988H887.23L887.074 138.852L886.083 138.988ZM877.399 116.622L876.569 117.179L876.574 117.187L876.58 117.195L877.399 116.622ZM860.201 100.621L859.693 101.483L859.702 101.488L859.71 101.492L860.201 100.621ZM1421.78 206.61L1421.78 207.61C1426.73 207.61 1430.9 209.341 1434.35 212.82L1435.06 212.116L1435.77 211.413C1431.94 207.55 1427.26 205.61 1421.78 205.61L1421.78 206.61ZM1435.06 212.116L1434.35 212.82C1437.79 216.303 1439.51 220.466 1439.51 225.364H1440.51H1441.51C1441.51 219.939 1439.58 215.27 1435.77 211.413L1435.06 212.116ZM1440.51 225.364L1439.51 225.364C1439.51 230.383 1437.79 234.602 1434.35 238.081L1435.06 238.784L1435.77 239.488C1439.59 235.626 1441.51 230.897 1441.51 225.364L1440.51 225.364ZM1435.06 238.784L1434.35 238.081C1430.9 241.559 1426.73 243.289 1421.78 243.289L1421.78 244.289L1421.78 245.289C1427.26 245.289 1431.94 243.35 1435.77 239.488L1435.06 238.784ZM1421.78 244.289V243.289C1416.82 243.289 1412.65 241.559 1409.2 238.081L1408.49 238.784L1407.78 239.488C1411.61 243.35 1416.29 245.289 1421.78 245.289V244.289ZM1408.49 238.784L1409.22 238.092C1405.88 234.616 1404.21 230.393 1404.21 225.364L1403.21 225.364L1402.21 225.364C1402.21 230.888 1404.07 235.612 1407.77 239.476L1408.49 238.784ZM1403.21 225.364H1404.21C1404.21 220.456 1405.88 216.289 1409.22 212.808L1408.49 212.116L1407.77 211.424C1404.07 215.284 1402.21 219.949 1402.21 225.364H1403.21ZM1408.49 212.116L1409.2 212.82C1412.65 209.341 1416.82 207.61 1421.78 207.61V206.61V205.61C1416.29 205.61 1411.61 207.55 1407.78 211.413L1408.49 212.116ZM487.009 62.9424V63.9424C499.918 63.9424 511.738 66.6636 522.486 72.0937L522.937 71.2012L523.388 70.3086C512.341 64.7275 500.209 61.9424 487.009 61.9424V62.9424ZM522.937 71.2012L522.494 72.0975C533.259 77.4227 542.453 84.8418 550.083 94.3645L550.863 93.7393L551.644 93.114C543.835 83.3672 534.411 75.7614 523.381 70.3048L522.937 71.2012ZM550.863 93.7393L550.086 94.3691C557.716 103.779 563.333 114.669 566.93 127.051L567.891 126.772L568.851 126.493C565.183 113.871 559.448 102.739 551.64 93.1094L550.863 93.7393ZM567.891 126.772L566.931 127.054C570.524 139.305 571.595 152.365 570.131 166.24L571.126 166.345L572.12 166.45C573.609 152.338 572.523 139.015 568.85 126.491L567.891 126.772ZM571.126 166.345V165.345H439.843V166.345V167.345H571.126V166.345ZM439.843 166.345L438.86 166.528C440.358 174.565 443.244 181.859 447.519 188.398L448.356 187.851L449.193 187.303C445.069 180.996 442.278 173.952 440.826 166.161L439.843 166.345ZM448.356 187.851L447.531 188.415C451.931 194.85 457.495 199.946 464.216 203.693L464.703 202.819L465.19 201.946C458.743 198.352 453.409 193.469 449.182 187.286L448.356 187.851ZM464.703 202.819L464.222 203.696C471.073 207.45 478.67 209.38 486.995 209.497L487.009 208.497L487.023 207.497C479.001 207.385 471.728 205.529 465.184 201.942L464.703 202.819ZM487.009 208.497V209.497C495.814 209.497 503.831 207.27 511.034 202.809L510.508 201.959L509.981 201.109C503.108 205.365 495.458 207.497 487.009 207.497V208.497ZM510.508 201.959L511.028 202.813C518.329 198.363 524.288 192.219 528.907 184.402L528.046 183.894L527.185 183.385C522.722 190.938 516.989 196.837 509.987 201.105L510.508 201.959ZM528.046 183.894L527.817 184.867L563.745 193.298L563.974 192.324L564.202 191.351L528.274 182.92L528.046 183.894ZM563.974 192.324L563.06 191.917C556.323 207.007 546.166 219.369 532.575 229.016L533.154 229.831L533.733 230.647C547.613 220.794 558.002 208.152 564.887 192.732L563.974 192.324ZM533.154 229.831L532.58 229.012C519.015 238.527 503.834 243.283 487.009 243.283V244.283V245.283C504.239 245.283 519.822 240.404 533.728 230.65L533.154 229.831ZM487.009 244.283L487.009 243.283C471.527 243.283 457.409 239.262 444.632 231.221L444.099 232.067L443.567 232.914C456.671 241.16 471.16 245.283 487.009 245.283L487.009 244.283ZM444.099 232.067L444.635 231.223C431.951 223.17 421.791 212.397 414.15 198.886L413.279 199.378L412.409 199.87C420.206 213.658 430.593 224.677 443.564 232.912L444.099 232.067ZM413.279 199.378L414.154 198.894C406.635 185.287 402.871 170.257 402.871 153.785L401.871 153.785L400.871 153.785C400.871 170.576 404.712 185.941 412.404 199.862L413.279 199.378ZM401.871 153.785H402.871C402.871 141.288 405.063 129.659 409.438 118.891L408.512 118.515L407.585 118.138C403.106 129.163 400.871 141.049 400.871 153.785H401.871ZM408.512 118.515L409.439 118.888C413.823 107.985 419.831 98.4569 427.462 90.2932L426.731 89.6104L426.001 88.9275C418.193 97.2805 412.055 107.022 407.584 118.142L408.512 118.515ZM426.731 89.6104L427.462 90.2935C435.206 82.015 444.18 75.5541 454.39 70.9062L453.975 69.9961L453.561 69.086C443.111 73.8435 433.922 80.4595 426.001 88.9272L426.731 89.6104ZM453.975 69.9961L454.39 70.9062C464.586 66.2647 475.455 63.9424 487.009 63.9424L487.009 62.9424L487.009 61.9424C475.178 61.9424 464.025 64.3223 453.561 69.086L453.975 69.9961ZM837.724 62.9424V63.9424C850.633 63.9424 862.454 66.6636 873.202 72.0937L873.653 71.2012L874.104 70.3086C863.057 64.7275 850.925 61.9424 837.724 61.9424V62.9424ZM873.653 71.2012L873.21 72.0975C883.974 77.4226 893.168 84.842 900.798 94.3645L901.578 93.7393L902.358 93.114C894.55 83.3673 885.127 75.7614 874.097 70.3048L873.653 71.2012ZM901.578 93.7393L900.801 94.3691C908.431 103.779 914.048 114.669 917.646 127.051L918.606 126.772L919.567 126.493C915.899 113.871 910.163 102.739 902.355 93.1094L901.578 93.7393ZM918.606 126.772L917.647 127.054C921.239 139.305 922.31 152.365 920.847 166.24L921.842 166.345L922.836 166.45C924.324 152.338 923.238 139.015 919.566 126.491L918.606 126.772ZM921.842 166.345V165.345H790.558V166.345V167.345H921.842V166.345ZM790.558 166.345L789.575 166.528C791.074 174.565 793.959 181.859 798.235 188.398L799.072 187.851L799.909 187.303C795.785 180.996 792.994 173.952 791.542 166.161L790.558 166.345ZM799.072 187.851L798.247 188.415C802.646 194.85 808.211 199.946 814.932 203.693L815.419 202.819L815.906 201.946C809.459 198.352 804.125 193.469 799.898 187.286L799.072 187.851ZM815.419 202.819L814.938 203.696C821.789 207.45 829.386 209.38 837.71 209.497L837.724 208.497L837.739 207.497C829.717 207.385 822.444 205.529 815.899 201.942L815.419 202.819ZM837.724 208.497V209.497C846.529 209.497 854.546 207.27 861.749 202.809L861.223 201.959L860.696 201.109C853.823 205.365 846.174 207.497 837.724 207.497V208.497ZM861.223 201.959L861.743 202.813C869.044 198.363 875.004 192.219 879.623 184.402L878.762 183.894L877.901 183.385C873.438 190.938 867.704 196.837 860.702 201.105L861.223 201.959ZM878.762 183.894L878.533 184.867L914.461 193.298L914.689 192.324L914.918 191.351L878.99 182.92L878.762 183.894ZM914.689 192.324L913.776 191.917C907.039 207.007 896.882 219.369 883.291 229.016L883.87 229.831L884.449 230.647C898.329 220.794 908.718 208.152 915.602 192.732L914.689 192.324ZM883.87 229.831L883.296 229.012C869.731 238.527 854.55 243.283 837.724 243.283V244.283V245.283C854.954 245.283 870.538 240.404 884.444 230.65L883.87 229.831ZM837.724 244.283L837.724 243.283C822.243 243.283 808.125 239.262 795.348 231.221L794.815 232.067L794.283 232.914C807.387 241.16 821.876 245.283 837.724 245.283L837.724 244.283ZM794.815 232.067L795.351 231.223C782.667 223.17 772.506 212.397 764.865 198.886L763.995 199.378L763.125 199.87C770.922 213.658 781.309 224.677 794.279 232.912L794.815 232.067ZM763.995 199.378L764.87 198.894C757.351 185.287 753.587 170.257 753.587 153.785L752.587 153.785L751.587 153.785C751.587 170.576 755.428 185.941 763.12 199.862L763.995 199.378ZM752.587 153.785H753.587C753.587 141.288 755.779 129.659 760.154 118.891L759.227 118.515L758.301 118.138C753.822 129.163 751.587 141.049 751.587 153.785H752.587ZM759.227 118.515L760.155 118.888C764.539 107.985 770.547 98.4569 778.178 90.2932L777.447 89.6104L776.717 88.9275C768.909 97.2805 762.771 107.022 758.3 118.142L759.227 118.515ZM777.447 89.6104L778.177 90.2935C785.922 82.015 794.896 75.5541 805.106 70.9062L804.691 69.9961L804.277 69.086C793.826 73.8435 784.638 80.4595 776.717 88.9272L777.447 89.6104ZM804.691 69.9961L805.106 70.9062C815.301 66.2647 826.171 63.9424 837.724 63.9424L837.724 62.9424L837.724 61.9424C825.894 61.9424 814.741 64.3223 804.277 69.086L804.691 69.9961ZM1296.02 62.9424L1296.02 63.9424C1308.23 63.9424 1318.94 66.7709 1328.19 72.3991L1328.71 71.5449L1329.23 70.6907C1319.63 64.8493 1308.55 61.9424 1296.02 61.9424L1296.02 62.9424ZM1328.71 71.5449L1328.2 72.4064C1337.62 77.9566 1345.4 85.0873 1351.56 93.8009L1352.38 93.2236L1353.2 92.6464C1346.87 83.6962 1338.87 76.3738 1329.22 70.6834L1328.71 71.5449ZM1352.38 93.2236L1353.38 93.1636L1351.85 67.6997L1350.85 67.7598L1349.85 67.8198L1351.38 93.2837L1352.38 93.2236ZM1350.85 67.7598V68.7598H1386.26V67.7598V66.7598H1350.85V67.7598ZM1386.26 67.7598H1385.26V239.81H1386.26H1387.26V67.7598H1386.26ZM1386.26 239.81V238.81H1350.68V239.81V240.81H1386.26V239.81ZM1350.68 239.81L1351.68 239.755L1350.31 214.808L1349.31 214.862L1348.32 214.917L1349.68 239.864L1350.68 239.81ZM1349.31 214.862L1348.44 214.37C1343.53 223.06 1336.89 230.049 1328.52 235.351L1329.05 236.196L1329.59 237.041C1338.24 231.562 1345.11 224.329 1350.18 215.355L1349.31 214.862ZM1329.05 236.196L1328.52 235.351C1320.19 240.627 1310.33 243.283 1298.91 243.283L1298.91 244.283L1298.91 245.283C1310.65 245.283 1320.89 242.548 1329.59 237.041L1329.05 236.196ZM1298.91 244.283V243.283C1286.56 243.283 1274.94 240.957 1264.06 236.31L1263.67 237.229L1263.27 238.149C1274.41 242.907 1286.3 245.283 1298.91 245.283V244.283ZM1263.67 237.229L1264.07 236.313C1253.17 231.546 1243.57 224.965 1235.26 216.568L1234.55 217.271L1233.84 217.975C1242.33 226.553 1252.14 233.278 1263.27 238.146L1263.67 237.229ZM1234.55 217.271L1235.26 216.573C1227.07 208.175 1220.66 198.53 1216.06 187.633L1215.14 188.022L1214.22 188.412C1218.92 199.537 1225.46 209.392 1233.83 217.97L1234.55 217.271ZM1215.14 188.022L1216.06 187.637C1211.46 176.64 1209.16 164.843 1209.16 152.236L1208.16 152.236L1207.16 152.236C1207.16 165.093 1209.51 177.154 1214.21 188.408L1215.14 188.022ZM1208.16 152.236H1209.16C1209.16 140.09 1211.4 128.695 1215.89 118.042L1214.97 117.654L1214.05 117.266C1209.45 128.177 1207.16 139.837 1207.16 152.236H1208.16ZM1214.97 117.654L1215.89 118.039C1220.38 107.258 1226.61 97.8465 1234.58 89.7972L1233.87 89.0938L1233.16 88.3903C1225 96.6284 1218.63 106.258 1214.04 117.27L1214.97 117.654ZM1233.87 89.0938L1234.58 89.7972C1242.55 81.7444 1251.75 75.4508 1262.19 70.9132L1261.79 69.9961L1261.39 69.079C1250.72 73.7174 1241.31 80.1557 1233.16 88.3903L1233.87 89.0938ZM1261.79 69.9961L1262.2 70.9112C1272.73 66.2669 1284.01 63.9424 1296.02 63.9424V62.9424V61.9424C1283.74 61.9424 1272.19 64.3201 1261.39 69.081L1261.79 69.9961ZM674.247 62.9424L674.247 63.9424C686.675 63.9425 697.961 66.9949 708.128 73.091L708.642 72.2334L709.157 71.3757C698.664 65.0845 687.02 61.9425 674.247 61.9424L674.247 62.9424ZM708.642 72.2334L708.128 73.091C718.312 79.1973 726.364 87.3898 732.296 97.6801L733.162 97.1807L734.028 96.6813C727.927 86.0963 719.633 77.6571 709.157 71.3758L708.642 72.2334ZM733.162 97.1807L732.3 97.6871C738.335 107.963 741.357 119.371 741.357 131.935H742.357H743.357C743.357 119.034 740.249 107.273 734.024 96.6743L733.162 97.1807ZM742.357 131.935H741.357V239.81H742.357H743.357V131.935H742.357ZM742.357 239.81V238.81H706.939V239.81V240.81H742.357V239.81ZM706.939 239.81H707.939V140.709H706.939H705.939V239.81H706.939ZM706.939 140.709H707.939C707.939 132.853 706.022 125.679 702.18 119.208L701.32 119.719L700.46 120.229C704.11 126.376 705.939 133.195 705.939 140.709H706.939ZM701.32 119.719L702.187 119.22C698.468 112.762 693.407 107.648 687.014 103.889L686.507 104.751L686 105.613C692.093 109.195 696.907 114.059 700.454 120.218L701.32 119.719ZM686.507 104.751L687.032 103.9C680.733 100.011 673.623 98.0732 665.732 98.0732V99.0732V100.073C673.28 100.073 680.021 101.921 685.981 105.602L686.507 104.751ZM665.732 99.0732L665.732 98.0732C658.063 98.0733 651.014 100.013 644.61 103.896L645.129 104.751L645.647 105.606C651.73 101.918 658.418 100.073 665.732 100.073L665.732 99.0732ZM645.129 104.751L644.622 103.889C638.231 107.646 633.116 112.757 629.286 119.208L630.145 119.719L631.005 120.229C634.666 114.064 639.54 109.197 645.636 105.613L645.129 104.751ZM630.145 119.719L629.286 119.208C625.443 125.679 623.526 132.853 623.526 140.709H624.526H625.526C625.526 133.195 627.355 126.376 631.005 120.229L630.145 119.719ZM624.526 140.709H623.526V239.81H624.526H625.526V140.709H624.526ZM624.526 239.81V238.81H589.108V239.81V240.81H624.526V239.81ZM589.108 239.81H590.108V67.7598H589.108H588.108V239.81H589.108ZM589.108 67.7598V68.7598H624.526V67.7598V66.7598H589.108V67.7598ZM624.526 67.7598H623.526V85.9971H624.526H625.526V67.7598H624.526ZM624.526 85.9971L625.296 86.6358C631.103 79.6395 638.251 74.1068 646.753 70.0378L646.321 69.1357L645.889 68.2337C637.137 72.423 629.755 78.1321 623.757 85.3584L624.526 85.9971ZM646.321 69.1357L646.753 70.0378C655.239 65.976 664.4 63.9424 674.247 63.9424V62.9424V61.9424C664.115 61.9424 654.658 64.0372 645.889 68.2337L646.321 69.1357ZM1024.96 62.9424V63.9424C1031.23 63.9424 1037.44 64.7904 1043.6 66.4875L1043.86 65.5234L1044.13 64.5594C1037.8 62.8155 1031.41 61.9424 1024.96 61.9424V62.9424ZM1043.86 65.5234L1042.93 65.1591L1028.8 101.289L1029.73 101.653L1030.66 102.018L1044.79 65.8877L1043.86 65.5234ZM1029.73 101.653L1030.09 100.721C1025.56 98.9592 1021.01 98.0732 1016.45 98.0732V99.0732V100.073C1020.74 100.073 1025.05 100.907 1029.37 102.585L1029.73 101.653ZM1016.45 99.0732L1016.45 98.0732C1008.78 98.0733 1001.73 100.013 995.326 103.896L995.845 104.751L996.363 105.606C1002.45 101.918 1009.13 100.073 1016.45 100.073L1016.45 99.0732ZM995.845 104.751L995.338 103.889C988.947 107.646 983.831 112.757 980 119.208L980.86 119.719L981.72 120.229C985.381 114.064 990.255 109.197 996.351 105.613L995.845 104.751ZM980.86 119.719L980 119.208C976.158 125.679 974.241 132.853 974.241 140.709H975.241H976.241C976.241 133.195 978.07 126.376 981.72 120.229L980.86 119.719ZM975.241 140.709H974.241V239.81H975.241H976.241V140.709H975.241ZM975.241 239.81V238.81H939.824V239.81V240.81H975.241V239.81ZM939.824 239.81H940.824V67.7598H939.824H938.824V239.81H939.824ZM939.824 67.7598V68.7598H975.241V67.7598V66.7598H939.824V67.7598ZM975.241 67.7598H974.241V85.9971H975.241H976.241V67.7598H975.241ZM975.241 85.9971L976.011 86.6358C981.818 79.6394 988.967 74.1068 997.469 70.0378L997.037 69.1357L996.605 68.2337C987.852 72.4231 980.47 78.1319 974.472 85.3584L975.241 85.9971ZM997.037 69.1357L997.469 70.0378C1005.96 65.9761 1015.12 63.9424 1024.96 63.9424L1024.96 62.9424L1024.96 61.9424C1014.83 61.9424 1005.37 64.0373 996.605 68.2337L997.037 69.1357ZM1197.58 103.533L1196.86 102.847L1102.18 203.325L1102.91 204.011L1103.64 204.697L1198.31 104.219L1197.58 103.533ZM1102.91 204.011V205.011H1197.58V204.011V203.011H1102.91V204.011ZM1197.58 204.011H1196.58V239.797H1197.58H1198.58V204.011H1197.58ZM1197.58 239.797V238.797H1052.17V239.797V240.797H1197.58V239.797ZM1052.17 239.797H1053.17V204.011H1052.17H1051.17V239.797H1052.17ZM1052.17 204.011L1052.89 204.697L1147.57 104.219L1146.84 103.533L1146.11 102.847L1051.44 203.325L1052.17 204.011ZM1146.84 103.533V102.533H1052.17V103.533V104.533H1146.84V103.533ZM1052.17 103.533H1053.17V67.7471H1052.17H1051.17V103.533H1052.17ZM1052.17 67.7471V68.7471H1197.58V67.7471V66.7471H1052.17V67.7471ZM1197.58 67.7471H1196.58V103.533H1197.58H1198.58V67.7471H1197.58ZM1298.06 97.6963L1298.06 96.6963C1288.01 96.6963 1278.8 99.2686 1270.46 104.416L1270.99 105.267L1271.51 106.117C1279.52 101.171 1288.37 98.6963 1298.06 98.6963L1298.06 97.6963ZM1270.99 105.267L1270.46 104.416C1262.14 109.553 1255.55 116.445 1250.7 125.079L1251.58 125.568L1252.45 126.058C1257.13 117.716 1263.49 111.074 1271.51 106.117L1270.99 105.267ZM1251.58 125.568L1250.7 125.079C1245.85 133.725 1243.42 143.301 1243.42 153.785H1244.42H1245.42C1245.42 143.623 1247.77 134.387 1252.45 126.058L1251.58 125.568ZM1244.42 153.785L1243.42 153.785C1243.42 164.386 1245.9 174.022 1250.88 182.671L1251.75 182.173L1252.61 181.674C1247.82 173.348 1245.42 164.06 1245.42 153.785L1244.42 153.785ZM1251.75 182.173L1250.89 182.685C1255.96 191.191 1262.6 198.017 1270.8 203.15L1271.33 202.303L1271.86 201.455C1263.94 196.495 1257.52 189.901 1252.6 181.661L1251.75 182.173ZM1271.33 202.303L1270.81 203.159C1279.14 208.186 1288.23 210.701 1298.06 210.701L1298.06 209.701L1298.06 208.701C1288.59 208.701 1279.86 206.283 1271.84 201.447L1271.33 202.303ZM1298.06 209.701V210.701C1308.22 210.701 1317.16 208.19 1324.83 203.138L1324.28 202.303L1323.73 201.467C1316.42 206.28 1307.88 208.701 1298.06 208.701V209.701ZM1324.28 202.303L1324.84 203.132C1332.49 197.982 1338.39 191.075 1342.55 182.435L1341.65 182.001L1340.75 181.567C1336.74 189.902 1331.06 196.53 1323.73 201.473L1324.28 202.303ZM1341.65 182.001L1342.55 182.444C1346.82 173.807 1348.95 164.248 1348.95 153.785L1347.95 153.785L1346.95 153.785C1346.95 163.968 1344.88 173.22 1340.76 181.557L1341.65 182.001ZM1347.95 153.785H1348.95C1348.95 143.21 1346.82 133.592 1342.55 124.953L1341.65 125.396L1340.76 125.84C1344.88 134.176 1346.95 143.485 1346.95 153.785H1347.95ZM1341.65 125.396L1342.55 124.953C1338.27 116.316 1332.31 109.466 1324.66 104.431L1324.11 105.267L1323.56 106.102C1330.9 110.931 1336.63 117.502 1340.76 125.84L1341.65 125.396ZM1324.11 105.267L1324.68 104.441C1317.11 99.2675 1308.23 96.6963 1298.06 96.6963V97.6963V98.6963C1307.87 98.6963 1316.36 101.172 1323.55 106.092L1324.11 105.267ZM487.009 94.5996L487.009 93.5996C478.78 93.5997 471.119 95.5927 464.042 99.5779L464.533 100.449L465.024 101.321C471.796 97.5065 479.119 95.5997 487.009 95.5996L487.009 94.5996ZM464.533 100.449L464.036 99.5814C457.086 103.561 451.297 109.003 446.674 115.893L447.505 116.45L448.335 117.007C452.793 110.363 458.358 105.137 465.03 101.317L464.533 100.449ZM447.505 116.45L446.672 115.896C442.164 122.671 439.164 130.315 437.665 138.815L438.65 138.988L439.635 139.162C441.088 130.916 443.992 123.535 448.337 117.004L447.505 116.45ZM438.65 138.988V139.988H535.368V138.988V137.988H438.65V138.988ZM535.368 138.988L536.359 138.852C535.203 130.441 532.25 122.835 527.503 116.049L526.683 116.622L525.864 117.195C530.425 123.714 533.263 131.019 534.377 139.124L535.368 138.988ZM526.683 116.622L527.514 116.065C522.888 109.171 517.04 103.728 509.976 99.7498L509.485 100.621L508.995 101.492C515.779 105.313 521.397 110.538 525.853 117.179L526.683 116.622ZM509.485 100.621L509.993 99.7596C503.023 95.6514 495.354 93.5996 487.009 93.5996V94.5996V95.5996C495.01 95.5996 502.326 97.5621 508.977 101.483L509.485 100.621ZM837.724 94.5996L837.724 93.5996C829.496 93.5997 821.834 95.5925 814.757 99.5779L815.248 100.449L815.739 101.321C822.511 97.5064 829.834 95.5997 837.724 95.5996L837.724 94.5996ZM815.248 100.449L814.751 99.5814C807.801 103.561 802.013 109.003 797.39 115.893L798.221 116.45L799.051 117.007C803.509 110.363 809.073 105.137 815.745 101.317L815.248 100.449ZM798.221 116.45L797.388 115.896C792.88 122.671 789.879 130.315 788.381 138.815L789.366 138.988L790.351 139.162C791.804 130.916 794.707 123.535 799.053 117.004L798.221 116.45ZM789.366 138.988V139.988H886.083V138.988V137.988H789.366V138.988ZM886.083 138.988L887.074 138.852C885.917 130.441 882.966 122.835 878.219 116.049L877.399 116.622L876.58 117.195C881.141 123.714 883.978 131.019 885.092 139.124L886.083 138.988ZM877.399 116.622L878.23 116.065C873.604 109.171 867.756 103.728 860.692 99.7498L860.201 100.621L859.71 101.492C866.495 105.313 872.113 110.538 876.569 117.179L877.399 116.622ZM860.201 100.621L860.709 99.7596C853.739 95.6514 846.07 93.5996 837.724 93.5996V94.5996V95.5996C845.725 95.5996 853.042 97.562 859.693 101.483L860.201 100.621Z" fill="url(#paint1_linear_7043_239)" mask="url(#path-2-outside-1_7043_239)"/>
<defs>
<linearGradient id="paint0_linear_7043_239" x1="152.032" y1="0" x2="152.032" y2="307.232" gradientUnits="userSpaceOnUse">
<stop stop-color="white" stop-opacity="0.2"/>
<stop offset="1" stop-color="white" stop-opacity="0"/>
</linearGradient>
<linearGradient id="paint1_linear_7043_239" x1="921.188" y1="62.9424" x2="921.188" y2="244.289" gradientUnits="userSpaceOnUse">
<stop stop-color="white" stop-opacity="0.2"/>
<stop offset="1" stop-color="white" stop-opacity="0"/>
</linearGradient>
</defs>
</svg>
