<svg width="177" height="40" viewBox="0 0 177 40" fill="none" xmlns="http://www.w3.org/2000/svg">
<path opacity="0.7" d="M15.5849 25.5556C21.733 25.5556 26.717 20.5809 26.717 14.4444C26.717 8.30796 21.733 3.33334 15.5849 3.33334H0V25.5556H15.5849Z" fill="#272727"/>
<path opacity="0.7" d="M0 3.33334L26.717 36.6667H8.90569L0 25.5556L0 3.33334Z" fill="#272727"/>
<path opacity="0.7" d="M17.6573 25.3633C16.9858 25.4896 16.2931 25.5556 15.5849 25.5556H0V3.33334L17.6573 25.3633Z" fill="#272727"/>
<path d="M43.0912 27.725C41.3328 27.725 39.8526 27.3875 38.6503 26.7125C37.4631 26.0375 36.5689 25.0775 35.9677 23.8325C35.3666 22.5725 35.066 21.08 35.066 19.355V19.2875C35.066 17.4575 35.3967 15.92 36.0579 14.675C36.7192 13.43 37.6509 12.4925 38.8532 11.8625C40.0554 11.2175 41.4681 10.895 43.0912 10.895C44.4738 10.895 45.6986 11.1425 46.7656 11.6375C47.8476 12.1175 48.7117 12.7925 49.358 13.6625C50.0192 14.5325 50.4099 15.5525 50.5302 16.7225H46.743C46.5477 15.8525 46.1118 15.2 45.4356 14.765C44.7593 14.315 43.9778 14.09 43.0912 14.09C41.6935 14.09 40.6491 14.4575 39.9578 15.1925C39.2815 15.9275 38.9433 16.8725 38.9433 18.0275V20.5925C38.9433 21.8525 39.3115 22.8275 40.0479 23.5175C40.7843 24.1925 41.7987 24.53 43.0912 24.53C43.9929 24.53 44.7818 24.2975 45.4581 23.8325C46.1494 23.3525 46.5777 22.6925 46.743 21.8525H50.5302C50.4099 23.0225 50.0117 24.05 49.3354 24.935C48.6742 25.82 47.8025 26.51 46.7205 27.005C45.6385 27.485 44.4287 27.725 43.0912 27.725Z" fill="#272727"/>
<path d="M57.6887 27.725C55.7199 27.725 54.2547 27.1625 53.2929 26.0375C52.3311 24.9125 51.8502 23.4125 51.8502 21.5375V21.47C51.8502 19.34 52.3837 17.765 53.4507 16.745C54.5177 15.71 55.9303 15.1925 57.6887 15.1925C59.462 15.1925 60.8822 15.71 61.9492 16.745C63.0312 17.765 63.5722 19.34 63.5722 21.47V21.5375C63.5572 23.4125 63.0688 24.9125 62.107 26.0375C61.1452 27.1625 59.6724 27.725 57.6887 27.725ZM57.6887 24.935C58.4551 24.935 59.0337 24.725 59.4244 24.305C59.8302 23.885 60.0331 23.3075 60.0331 22.5725V20.4125C60.0331 19.6625 59.8227 19.0775 59.4019 18.6575C58.9961 18.2225 58.425 18.005 57.6887 18.005C56.9673 18.005 56.3962 18.2225 55.9754 18.6575C55.5697 19.0775 55.3668 19.6625 55.3668 20.4125V22.5725C55.3668 23.3075 55.5621 23.885 55.9529 24.305C56.3586 24.725 56.9372 24.935 57.6887 24.935Z" fill="#272727"/>
<path d="M65.4628 27.5V15.4175H68.7089L68.9343 17.33H69.1372C69.3927 16.67 69.836 16.1525 70.4672 15.7775C71.0984 15.4025 71.8273 15.215 72.6538 15.215C73.6156 15.215 74.4196 15.44 75.0659 15.89C75.7121 16.34 76.1479 16.9475 76.3733 17.7125H76.5311C76.7866 16.9175 77.2525 16.3025 77.9287 15.8675C78.605 15.4325 79.4015 15.215 80.3182 15.215C81.5806 15.215 82.58 15.59 83.3164 16.34C84.0675 17.075 84.4432 18.245 84.4432 19.85V27.5H80.972V20.48C80.972 19.58 80.7916 18.95 80.431 18.59C80.0703 18.215 79.5743 18.0275 78.9432 18.0275C78.2068 18.0275 77.6432 18.275 77.2525 18.77C76.8768 19.25 76.6889 19.9025 76.6889 20.7275V27.5H73.2174V20.48C73.2174 19.58 73.037 18.95 72.6764 18.59C72.3307 18.215 71.8273 18.0275 71.166 18.0275C70.4296 18.0275 69.8736 18.275 69.4979 18.77C69.1222 19.25 68.9343 19.9025 68.9343 20.7275V27.5H65.4628Z" fill="#272727"/>
<path d="M87.0264 27.5V15.4175H90.2725L90.4979 17.33H90.7008C90.9563 16.67 91.3996 16.1525 92.0308 15.7775C92.662 15.4025 93.3909 15.215 94.2174 15.215C95.1793 15.215 95.9833 15.44 96.6295 15.89C97.2757 16.34 97.7115 16.9475 97.9369 17.7125H98.0947C98.3502 16.9175 98.8161 16.3025 99.4924 15.8675C100.169 15.4325 100.965 15.215 101.882 15.215C103.144 15.215 104.144 15.59 104.88 16.34C105.631 17.075 106.007 18.245 106.007 19.85V27.5H102.536V20.48C102.536 19.58 102.355 18.95 101.995 18.59C101.634 18.215 101.138 18.0275 100.507 18.0275C99.7704 18.0275 99.2068 18.275 98.8161 18.77C98.4404 19.25 98.2525 19.9025 98.2525 20.7275V27.5H94.781V20.48C94.781 19.58 94.6007 18.95 94.24 18.59C93.8943 18.215 93.3909 18.0275 92.7296 18.0275C91.9933 18.0275 91.4372 18.275 91.0615 18.77C90.6858 19.25 90.4979 19.9025 90.4979 20.7275V27.5H87.0264Z" fill="#272727"/>
<path d="M112.422 27.725C110.814 27.725 109.642 27.185 108.905 26.105C108.169 25.01 107.801 23.555 107.801 21.74V21.2225C107.801 19.1075 108.214 17.5775 109.04 16.6325C109.882 15.6725 111.017 15.1925 112.444 15.1925C113.241 15.1925 113.955 15.3725 114.586 15.7325C115.217 16.0775 115.683 16.565 115.983 17.195H116.141L116.322 15.4175H119.59V27.5H116.141V25.7225H115.983C115.683 26.3525 115.209 26.8475 114.563 27.2075C113.932 27.5525 113.218 27.725 112.422 27.725ZM113.819 24.9125C114.526 24.9125 115.089 24.7025 115.51 24.2825C115.931 23.8475 116.141 23.24 116.141 22.46V20.48C116.141 19.7 115.931 19.0925 115.51 18.6575C115.089 18.2225 114.526 18.005 113.819 18.005C113.083 18.005 112.512 18.2225 112.106 18.6575C111.7 19.0775 111.497 19.67 111.497 20.435V22.505C111.497 23.27 111.7 23.8625 112.106 24.2825C112.512 24.7025 113.083 24.9125 113.819 24.9125Z" fill="#272727"/>
<path d="M122.315 27.5V15.4175H125.539L125.787 17.3975H125.99C126.245 16.7375 126.689 16.205 127.32 15.8C127.951 15.395 128.702 15.1925 129.574 15.1925C130.866 15.1925 131.888 15.59 132.64 16.385C133.391 17.165 133.767 18.4025 133.767 20.0975V27.5H130.318V20.5475C130.318 19.5725 130.123 18.905 129.732 18.545C129.341 18.185 128.815 18.005 128.154 18.005C127.372 18.005 126.779 18.26 126.373 18.77C125.982 19.28 125.787 19.955 125.787 20.795V27.5H122.315Z" fill="#272727"/>
<path d="M140.205 27.725C138.582 27.725 137.402 27.1775 136.666 26.0825C135.929 24.9875 135.561 23.525 135.561 21.695V21.2C135.561 19.1 135.974 17.5775 136.801 16.6325C137.643 15.6725 138.77 15.1925 140.182 15.1925C140.979 15.1925 141.693 15.3725 142.324 15.7325C142.97 16.0775 143.443 16.565 143.744 17.195H143.902V11.0975H147.373V27.5H144.082L143.902 25.7225H143.744C143.443 26.3525 142.978 26.8475 142.346 27.2075C141.715 27.5525 141.001 27.725 140.205 27.725ZM141.58 24.9125C142.286 24.9125 142.85 24.695 143.271 24.26C143.691 23.825 143.902 23.2175 143.902 22.4375V20.4575C143.902 19.6925 143.691 19.0925 143.271 18.6575C142.85 18.2225 142.286 18.005 141.58 18.005C140.844 18.005 140.272 18.215 139.867 18.635C139.461 19.055 139.258 19.6475 139.258 20.4125V22.505C139.258 23.255 139.461 23.8475 139.867 24.2825C140.272 24.7025 140.844 24.9125 141.58 24.9125Z" fill="#272727"/>
<path d="M153.322 26.3992V22.3942H149.355V19.6942H153.322V15.7117H156.095V19.6942H160.062V22.3942H156.095V26.3992H153.322Z" fill="#272727"/>
<path d="M162.334 27.5V11.0975H170.539C171.606 11.0975 172.568 11.2475 173.425 11.5475C174.282 11.8325 174.965 12.32 175.476 13.01C175.987 13.685 176.243 14.6225 176.243 15.8225C176.243 16.9025 175.965 17.7875 175.409 18.4775C174.868 19.1525 174.131 19.5725 173.2 19.7375V19.9175C175.078 20.0825 176.017 21.155 176.017 23.135V27.5H172.275V23.675C172.275 22.88 172.087 22.3325 171.712 22.0325C171.351 21.7175 170.833 21.56 170.156 21.56H166.031V27.5H162.334ZM169.728 14.2025H166.031V18.6575H169.796C170.637 18.6575 171.261 18.5 171.667 18.185C172.072 17.855 172.275 17.405 172.275 16.835V16.115C172.275 15.425 172.05 14.9375 171.599 14.6525C171.148 14.3525 170.524 14.2025 169.728 14.2025Z" fill="#272727"/>
</svg>
