<svg width="169" height="40" viewBox="0 0 169 40" fill="none" xmlns="http://www.w3.org/2000/svg">
<path d="M0 7.49999C0 5.19881 1.87287 3.33333 4.18317 3.33333H12.5495C14.8598 3.33333 16.7327 5.19881 16.7327 7.49999V15.6827C16.7328 15.7327 16.7329 15.7829 16.7329 15.8333C16.7329 18.1312 18.6005 19.9947 20.9061 20H20.9158H29.2822C31.5925 20 33.4653 21.8655 33.4653 24.1667V32.5C33.4653 34.8012 31.5925 36.6667 29.2822 36.6667H20.9158C18.6056 36.6667 16.7327 34.8012 16.7327 32.5V24.1667C16.7327 24.1551 16.7328 24.1436 16.7328 24.132C16.7141 21.8468 14.8485 20 12.5498 20C12.539 20 12.5282 20 12.5174 20H4.18317C1.87287 20 0 18.1345 0 15.8333L0 7.49999Z" fill="#272727"/>
<path fill-rule="evenodd" clip-rule="evenodd" d="M78.7712 27.7999C77.5999 27.7999 76.5541 27.5166 75.6338 26.9499C74.7135 26.3832 73.9856 25.6082 73.4502 24.6249C72.9147 23.6416 72.647 22.5249 72.647 21.2749C72.647 20.0249 72.9147 18.9166 73.4502 17.9499C73.9856 16.9666 74.7135 16.1999 75.6338 15.6499C76.5541 15.0832 77.5999 14.7999 78.7712 14.7999C79.7082 14.7999 80.5281 14.9749 81.2309 15.3249C81.9336 15.6749 82.5026 16.1666 82.9376 16.7999V9.49991H86.1507V27.4999H83.289L82.9376 25.7249C82.536 26.2749 82.0006 26.7582 81.3313 27.1749C80.6787 27.5916 79.8253 27.7999 78.7712 27.7999ZM79.4488 24.9999C80.4863 24.9999 81.3313 24.6582 81.9838 23.9749C82.6531 23.2749 82.9878 22.3832 82.9878 21.2999C82.9878 20.2166 82.6531 19.3332 81.9838 18.6499C81.3313 17.9499 80.4863 17.5999 79.4488 17.5999C78.4281 17.5999 77.5831 17.9416 76.9138 18.6249C76.2445 19.3082 75.9099 20.1916 75.9099 21.2749C75.9099 22.3582 76.2445 23.2499 76.9138 23.9499C77.5831 24.6499 78.4281 24.9999 79.4488 24.9999Z" fill="#272727"/>
<path d="M45.7973 26.6749C47.069 27.4249 48.5917 27.7999 50.3653 27.7999C52.4737 27.7999 54.1971 27.2916 55.5357 26.2749C56.8911 25.2582 57.7361 23.8499 58.0707 22.0499H54.5318C54.3143 22.9499 53.8457 23.6582 53.1262 24.1749C52.4235 24.6749 51.4864 24.9249 50.3151 24.9249C48.6921 24.9249 47.4204 24.3832 46.5001 23.2999C45.5798 22.1999 45.1197 20.6916 45.1197 18.7749C45.1197 16.8582 45.5798 15.3499 46.5001 14.2499C47.4204 13.1499 48.6921 12.5999 50.3151 12.5999C51.4864 12.5999 52.4235 12.8749 53.1262 13.4249C53.8457 13.9582 54.3143 14.6999 54.5318 15.6499H58.0707C57.7361 13.7666 56.8911 12.3082 55.5357 11.2749C54.1971 10.2249 52.4737 9.69991 50.3653 9.69991C48.5917 9.69991 47.069 10.0832 45.7973 10.8499C44.5256 11.6166 43.5468 12.6832 42.8607 14.0499C42.1747 15.4166 41.8317 16.9916 41.8317 18.7749C41.8317 20.5582 42.1747 22.1332 42.8607 23.4999C43.5468 24.8499 44.5256 25.9082 45.7973 26.6749Z" fill="#272727"/>
<path fill-rule="evenodd" clip-rule="evenodd" d="M62.044 26.9749C63.0145 27.5249 64.1021 27.7999 65.3069 27.7999C66.4949 27.7999 67.5742 27.5249 68.5447 26.9749C69.5151 26.4249 70.2765 25.6666 70.8287 24.6999C71.3976 23.7166 71.682 22.5832 71.682 21.2999C71.682 20.0166 71.3976 18.8916 70.8287 17.9249C70.2765 16.9416 69.5151 16.1749 68.5447 15.6249C67.5909 15.0749 66.52 14.7999 65.332 14.7999C64.1272 14.7999 63.0396 15.0749 62.0691 15.6249C61.1153 16.1749 60.354 16.9416 59.7851 17.9249C59.2162 18.8916 58.9317 20.0166 58.9317 21.2999C58.9317 22.5832 59.2078 23.7166 59.76 24.6999C60.3289 25.6666 61.0902 26.4249 62.044 26.9749ZM67.4905 24.0999C66.8714 24.7166 66.1435 25.0249 65.3069 25.0249C64.4702 25.0249 63.7424 24.7166 63.1233 24.0999C62.5209 23.4666 62.2197 22.5332 62.2197 21.2999C62.2197 20.0666 62.5209 19.1416 63.1233 18.5249C63.7424 17.8916 64.4786 17.5749 65.332 17.5749C66.1519 17.5749 66.8714 17.8916 67.4905 18.5249C68.1096 19.1416 68.4192 20.0666 68.4192 21.2999C68.4192 22.5332 68.1096 23.4666 67.4905 24.0999Z" fill="#272727"/>
<path fill-rule="evenodd" clip-rule="evenodd" d="M90.6267 26.9999C91.5972 27.5332 92.7099 27.7999 93.9648 27.7999C94.9688 27.7999 95.864 27.6166 96.6504 27.2499C97.4536 26.8832 98.1229 26.3832 98.6583 25.7499C99.2105 25.0999 99.6037 24.3832 99.838 23.5999H96.5751C96.3576 24.0666 96.023 24.4499 95.5712 24.7499C95.1361 25.0332 94.5923 25.1749 93.9397 25.1749C93.0696 25.1749 92.325 24.8999 91.7059 24.3499C91.1035 23.7999 90.7689 23.0416 90.702 22.0749H100.164C100.181 21.8582 100.189 21.6499 100.189 21.4499C100.206 21.2499 100.214 21.0582 100.214 20.8749C100.214 19.7416 99.9468 18.7166 99.4113 17.7999C98.8926 16.8666 98.1647 16.1332 97.2277 15.5999C96.2907 15.0666 95.2114 14.7999 93.9899 14.7999C92.6848 14.7999 91.547 15.0832 90.5765 15.6499C89.6227 16.1999 88.8697 16.9749 88.3176 17.9749C87.7821 18.9749 87.5144 20.1166 87.5144 21.3999C87.5144 22.6666 87.7905 23.7832 88.3427 24.7499C88.8948 25.7166 89.6562 26.4666 90.6267 26.9999ZM91.9067 18.0749C92.5091 17.6249 93.2035 17.3999 93.9899 17.3999C94.8098 17.3999 95.4959 17.6416 96.0481 18.1249C96.6002 18.6082 96.9014 19.2582 96.9516 20.0749H90.7522C90.9195 19.1749 91.3043 18.5082 91.9067 18.0749Z" fill="#272727"/>
<path d="M107.51 27.7999C106.238 27.7999 105.117 27.5249 104.147 26.9749C103.176 26.4249 102.406 25.6582 101.838 24.6749C101.285 23.6916 101.009 22.5666 101.009 21.2999C101.009 20.0332 101.285 18.9082 101.838 17.9249C102.406 16.9416 103.176 16.1749 104.147 15.6249C105.117 15.0749 106.238 14.7999 107.51 14.7999C109.1 14.7999 110.438 15.2166 111.526 16.0499C112.613 16.8666 113.308 17.9999 113.609 19.4499H110.221C110.053 18.8499 109.719 18.3832 109.217 18.0499C108.731 17.6999 108.154 17.5249 107.485 17.5249C106.598 17.5249 105.845 17.8582 105.226 18.5249C104.607 19.1916 104.297 20.1166 104.297 21.2999C104.297 22.4832 104.607 23.4082 105.226 24.0749C105.845 24.7416 106.598 25.0749 107.485 25.0749C108.154 25.0749 108.731 24.9082 109.217 24.5749C109.719 24.2416 110.053 23.7666 110.221 23.1499H113.609C113.308 24.5499 112.613 25.6749 111.526 26.5249C110.438 27.3749 109.1 27.7999 107.51 27.7999Z" fill="#272727"/>
<path d="M118.117 17.4249L117.816 15.0999H114.954V27.4999H118.167V21.8499C118.167 20.8999 118.318 20.1582 118.619 19.6249C118.937 19.0916 119.372 18.7166 119.924 18.4999C120.476 18.2832 121.104 18.1749 121.806 18.1749H122.71V14.7999C121.656 14.7999 120.735 15.0416 119.949 15.5249C119.179 15.9916 118.569 16.6249 118.117 17.4249Z" fill="#272727"/>
<path fill-rule="evenodd" clip-rule="evenodd" d="M127.691 27.7999C126.62 27.7999 125.742 27.6332 125.056 27.2999C124.37 26.9499 123.859 26.4916 123.525 25.9249C123.19 25.3582 123.023 24.7332 123.023 24.0499C123.023 22.8999 123.475 21.9666 124.378 21.2499C125.282 20.5332 126.637 20.1749 128.444 20.1749H131.607V19.8749C131.607 19.0249 131.364 18.3999 130.879 17.9999C130.394 17.5999 129.791 17.3999 129.072 17.3999C128.419 17.3999 127.85 17.5582 127.365 17.8749C126.88 18.1749 126.578 18.6249 126.461 19.2249H123.324C123.408 18.3249 123.709 17.5416 124.228 16.8749C124.763 16.2082 125.449 15.6999 126.286 15.3499C127.122 14.9832 128.059 14.7999 129.097 14.7999C130.87 14.7999 132.268 15.2416 133.288 16.1249C134.309 17.0082 134.819 18.2582 134.819 19.8749V27.4999H132.084L131.782 25.4999C131.414 26.1666 130.896 26.7166 130.226 27.1499C129.574 27.5832 128.729 27.7999 127.691 27.7999ZM128.419 25.2999C129.339 25.2999 130.051 24.9999 130.552 24.3999C131.071 23.7999 131.397 23.0582 131.531 22.1749H128.796C127.942 22.1749 127.331 22.3332 126.963 22.6499C126.595 22.9499 126.411 23.3249 126.411 23.7749C126.411 24.2582 126.595 24.6332 126.963 24.8999C127.331 25.1666 127.817 25.2999 128.419 25.2999Z" fill="#272727"/>
<path d="M138.086 10.4499C137.333 11.0832 136.957 12.1499 136.957 13.6499V15.0999H135.25V17.7749H136.957V27.4999H140.17V17.7749H145.123V23.1749C145.123 24.7916 145.517 25.9166 146.303 26.5499C147.089 27.1832 148.135 27.4999 149.44 27.4999H151.624V24.7749H150.068C149.432 24.7749 148.98 24.6666 148.712 24.4499C148.461 24.2166 148.336 23.7999 148.336 23.1999V17.7749H151.699V15.0999H148.336V11.7749H145.5L145.123 15.0999H140.17V13.6499C140.17 13.1332 140.287 12.7666 140.521 12.5499C140.755 12.3332 141.148 12.2249 141.701 12.2249H142.579V9.49991H141.199C139.894 9.49991 138.856 9.81657 138.086 10.4499Z" fill="#272727"/>
<path d="M152.676 28.4499V31.4999H168.731V28.4499H152.676Z" fill="#272727"/>
</svg>
