<svg width="123" height="40" viewBox="0 0 123 40" fill="none" xmlns="http://www.w3.org/2000/svg">
<path opacity="0.5" d="M0 12.1054V27.8948L14.9731 17.6917V1.90218L0 12.1054Z" fill="#272727"/>
<path opacity="0.5" d="M0 27.8948V12.1053L14.9731 22.3084V38.0979L0 27.8948Z" fill="#272727"/>
<path opacity="0.5" d="M33.4694 12.1053V27.8948L18.4963 17.6916V1.90211L33.4694 12.1053Z" fill="#272727"/>
<path opacity="0.5" d="M33.4694 27.8948V12.1053L18.4963 22.3084V38.0979L33.4694 27.8948Z" fill="#272727"/>
<path d="M41.8367 20.1667C41.8367 18.7222 42.1505 17.4375 42.7781 16.3125C43.4056 15.1736 44.2772 14.2917 45.3929 13.6667C46.5224 13.0278 47.7985 12.7083 49.2209 12.7083C50.9641 12.7083 52.4563 13.1667 53.6974 14.0833C54.9386 15 55.7684 16.25 56.1867 17.8333H52.2541C51.9612 17.2222 51.5429 16.7569 50.999 16.4375C50.4691 16.118 49.8624 15.9583 49.1791 15.9583C48.0774 15.9583 47.1849 16.3403 46.5015 17.1042C45.8182 17.868 45.4765 18.8888 45.4765 20.1667C45.4765 21.4444 45.8182 22.4653 46.5015 23.2292C47.1849 23.993 48.0774 24.375 49.1791 24.375C49.8624 24.375 50.4691 24.2153 50.999 23.8958C51.5429 23.5763 51.9612 23.1111 52.2541 22.5H56.1867C55.7684 24.0833 54.9386 25.3333 53.6974 26.25C52.4563 27.1528 50.9641 27.6042 49.2209 27.6042C47.7985 27.6042 46.5224 27.2917 45.3929 26.6667C44.2772 26.0278 43.4056 25.1458 42.7781 24.0208C42.1505 22.8958 41.8367 21.6111 41.8367 20.1667Z" fill="#272727"/>
<path d="M69.485 15.875V27.5H65.9079V25.9167C65.5453 26.4305 65.0503 26.8472 64.4227 27.1667C63.809 27.4722 63.1258 27.625 62.3727 27.625C61.4802 27.625 60.6922 27.4305 60.0089 27.0417C59.3256 26.6388 58.7957 26.0625 58.4191 25.3125C58.0426 24.5625 57.8543 23.6805 57.8543 22.6667V15.875H61.4105V22.1875C61.4105 22.9653 61.6126 23.5694 62.0171 24C62.4215 24.4305 62.9654 24.6458 63.6487 24.6458C64.346 24.6458 64.8968 24.4305 65.3013 24C65.7057 23.5694 65.9079 22.9653 65.9079 22.1875V15.875H69.485Z" fill="#272727"/>
<path d="M75.213 17.5208C75.5477 16.9792 76.0288 16.5417 76.6564 16.2083C77.2839 15.875 78.0021 15.7083 78.811 15.7083C79.7732 15.7083 80.6447 15.9513 81.4257 16.4375C82.2067 16.9236 82.8203 17.618 83.2666 18.5208C83.727 19.4236 83.9571 20.4722 83.9571 21.6667C83.9571 22.8611 83.727 23.9167 83.2666 24.8333C82.8203 25.7361 82.2067 26.4375 81.4257 26.9375C80.6447 27.4236 79.7732 27.6667 78.811 27.6667C77.9881 27.6667 77.2699 27.5069 76.6564 27.1875C76.0427 26.8542 75.5616 26.4167 75.213 25.875V27.5H71.636V12.0833H75.213V17.5208ZM80.3171 21.6667C80.3171 20.7778 80.0661 20.0833 79.564 19.5833C79.0759 19.0694 78.4692 18.8125 77.7441 18.8125C77.0329 18.8125 76.4263 19.0694 75.9242 19.5833C75.4361 20.0972 75.1921 20.7986 75.1921 21.6875C75.1921 22.5763 75.4361 23.2778 75.9242 23.7917C76.4263 24.3055 77.0329 24.5625 77.7441 24.5625C78.4553 24.5625 79.062 24.3055 79.564 23.7917C80.0661 23.2638 80.3171 22.5555 80.3171 21.6667Z" fill="#272727"/>
<path d="M96.4178 21.5C96.4178 21.8333 96.3969 22.1805 96.355 22.5417H88.2596C88.3157 23.2638 88.5458 23.8194 88.9499 24.2083C89.3683 24.5833 89.8779 24.7708 90.477 24.7708C91.3698 24.7708 91.9906 24.3958 92.3387 23.6458H96.1458C95.9509 24.4097 95.5953 25.0972 95.079 25.7083C94.577 26.3194 93.9427 26.7986 93.1754 27.1458C92.409 27.493 91.5513 27.6667 90.6025 27.6667C89.4595 27.6667 88.4412 27.4236 87.5484 26.9375C86.6564 26.4513 85.9586 25.7569 85.4565 24.8542C84.9545 23.9513 84.7035 22.8958 84.7035 21.6875C84.7035 20.4792 84.9478 19.4236 85.4356 18.5208C85.9377 17.618 86.6355 16.9236 87.5275 16.4375C88.4203 15.9513 89.4453 15.7083 90.6025 15.7083C91.7321 15.7083 92.7361 15.9444 93.6147 16.4167C94.4933 16.8888 95.1769 17.5625 95.6647 18.4375C96.1668 19.3125 96.4178 20.3333 96.4178 21.5ZM92.7571 20.5625C92.7571 19.9513 92.5479 19.4653 92.1295 19.1042C91.7111 18.743 91.1882 18.5625 90.5606 18.5625C89.9615 18.5625 89.452 18.7361 89.0336 19.0833C88.6294 19.4305 88.3784 19.9236 88.2805 20.5625H92.7571Z" fill="#272727"/>
<path d="M105.02 27.5L101.464 22.625V27.5H97.8871V12.0833H101.464V20.6042L104.999 15.875H109.413L104.56 21.7083L109.455 27.5H105.02Z" fill="#272727"/>
<path d="M112.199 14.6667C111.571 14.6667 111.055 14.4861 110.651 14.125C110.26 13.75 110.065 13.2917 110.065 12.75C110.065 12.1944 110.26 11.7361 110.651 11.375C111.055 11 111.571 10.8125 112.199 10.8125C112.812 10.8125 113.314 11 113.705 11.375C114.109 11.7361 114.311 12.1944 114.311 12.75C114.311 13.2917 114.109 13.75 113.705 14.125C113.314 14.4861 112.812 14.6667 112.199 14.6667ZM113.977 15.875V27.5H110.4V15.875H113.977Z" fill="#272727"/>
<path d="M122.656 24.4792V27.5H120.836C119.539 27.5 118.528 27.1875 117.803 26.5625C117.078 25.9236 116.715 24.8889 116.715 23.4584V18.8334H115.293V15.875H116.715V13.0417H120.292V15.875H122.635V18.8334H120.292V23.5C120.292 23.8472 120.376 24.0972 120.543 24.25C120.711 24.4028 120.989 24.4792 121.38 24.4792H122.656Z" fill="#272727"/>
</svg>
